<?xml version="1.0" encoding="UTF-8" standalone="no"?>
<!-- Created with Inkscape (http://www.inkscape.org/) -->

<svg
   width="56mm"
   height="86mm"
   viewBox="0 0 56 86"
   version="1.1"
   id="svg1"
   inkscape:version="1.4 (e7c3feb100, 2024-10-09)"
   sodipodi:docname="back.svg"
   xmlns:inkscape="http://www.inkscape.org/namespaces/inkscape"
   xmlns:sodipodi="http://sodipodi.sourceforge.net/DTD/sodipodi-0.dtd"
   xmlns="http://www.w3.org/2000/svg"
   xmlns:svg="http://www.w3.org/2000/svg">
  <sodipodi:namedview
     id="namedview1"
     pagecolor="#ffffff"
     bordercolor="#000000"
     borderopacity="0.25"
     inkscape:showpageshadow="2"
     inkscape:pageopacity="0.0"
     inkscape:pagecheckerboard="0"
     inkscape:deskcolor="#d1d1d1"
     inkscape:document-units="mm"
     inkscape:zoom="1.0595392"
     inkscape:cx="32.089422"
     inkscape:cy="119.39152"
     inkscape:window-width="1261"
     inkscape:window-height="1016"
     inkscape:window-x="0"
     inkscape:window-y="0"
     inkscape:window-maximized="1"
     inkscape:current-layer="g34" />
  <defs
     id="defs1" />
  <g
     inkscape:label="Layer 1"
     inkscape:groupmode="layer"
     id="layer1"
     transform="translate(-133.61458,-101.07083)">
    <g
       id="g34"
       transform="translate(541.07274,41.669305)">
      <rect
         style="fill:#f9f9f9;stroke-width:0.267626"
         id="rect1"
         width="56"
         height="86"
         x="-407.45816"
         y="59.401527"
         rx="3" />
      <rect
         style="fill:#1a1a1a;stroke-width:0.239968"
         id="rect1-5"
         width="49.007965"
         height="79.007973"
         x="-403.96216"
         y="62.897545"
         rx="2.6254268" />
      <path
         id="rect1-5-3"
         style="fill:#cb0423;fill-opacity:1;stroke-width:0.239968"
         d="m -366.47307,68.995258 a 19.089518,36.916687 30.07906 0 0 -34.11782,33.347322 19.089518,36.916687 30.07906 0 0 -3.37137,12.90205 v 8.39897 a 19.089518,36.916687 30.07906 0 0 11.51868,12.04578 19.089518,36.916687 30.07906 0 0 34.11833,-33.3468 19.089518,36.916687 30.07906 0 0 3.37085,-12.895857 v -8.407756 a 19.089518,36.916687 30.07906 0 0 -11.51867,-12.043709 z" />
      <g
         id="g32"
         transform="matrix(0.65368338,0,0,0.65368338,-266.60214,60.219481)">
        <path
           id="path11-4"
           style="fill:#1a1a1a;fill-opacity:1;stroke:#ffffff;stroke-width:1;stroke-linejoin:round;stroke-dasharray:none;stroke-opacity:1;paint-order:stroke fill markers"
           d="m -143.25863,44.672654 c -0.91488,0.0274 -1.89705,0.23479 -2.94659,0.62219 -0.30847,0.11385 -0.5965,0.23824 -0.87385,0.36742 l 0.002,-0.006 -0.0563,0.0326 c -0.47528,0.22484 -0.90372,0.47259 -1.28622,0.7431 l -2.02727,1.17099 -0.0889,0.0512 -0.003,0.006 c -1.43231,0.82887 -2.42745,1.87949 -2.97708,3.15588 -0.0214,0.0419 -0.0376,0.0858 -0.0579,0.12816 l -0.8878,-2.1146 -2.85978,1.05523 -1.93786,1.48415 0.0119,0.0284 0.12713,0.30179 0.0305,0.0734 0.11472,0.27285 1.23972,2.95383 0.68006,1.66863 -6.11487,-4.62401 -3.2179,1.18805 h -5.1e-4 v -5.2e-4 l -1.71049,1.31 -0.2465,-0.58705 -3.11867,1.15084 -1.87276,1.47071 -0.0331,0.0258 -0.008,0.006 0.0966,0.23719 0.30231,0.74052 0.13901,0.34159 5.2e-4,5.1e-4 3.17138,7.5551 c 0.39865,0.94956 0.57025,1.68722 0.5147,2.21278 -0.002,0.0374 -0.0152,0.0704 -0.0191,0.10697 -0.0498,0.0199 -0.0944,0.0418 -0.14625,0.061 -1.24883,0.46095 -2.222,0.37276 -2.9192,-0.26458 -0.42273,-0.34903 -0.83331,-0.99813 -1.23196,-1.94769 l -3.56413,-8.48992 -3.11815,1.15084 h -5.2e-4 v 5.1e-4 l -2.75797,2.11202 c -0.40128,-0.13291 -0.82047,-0.20894 -1.26142,-0.21756 -0.64314,-0.0151 -1.48381,0.15805 -2.5213,0.51935 l -7.20214,2.65875 -0.002,5.2e-4 -2.52284,1.93218 0.23667,0.58136 5.2e-4,-0.001 0.002,0.006 c -1.14809,-0.66357 -2.61942,-0.68007 -4.41627,-0.0455 l -7.13342,2.63292 -5.1e-4,-5.2e-4 -2.27635,1.74356 0.44545,1.09348 0.001,-0.002 5.32474,13.06329 0.53536,-0.19792 6.65593,-2.4567 c 0.75063,-0.27706 1.41876,-0.59569 2.00401,-0.95602 0.32547,-0.19948 0.61516,-0.42684 0.86145,-0.67127 l 1.85105,-1.97198 -5.2e-4,-0.008 c 0.1631,-0.17279 0.3134,-0.35303 0.43873,-0.54726 0.10526,-0.15976 0.18284,-0.33161 0.26303,-0.50229 l 0.0884,0.21652 0.3545,0.8692 0.11266,0.27699 c -1e-5,-5.1e-4 2e-5,-6.9e-4 0,-0.002 l 0.39067,0.9586 3.79718,-1.40612 0.0114,-0.0119 0.005,-0.002 -0.001,-0.002 1.76681,-1.88257 0.002,-0.001 -5.2e-4,-0.001 0.002,-0.002 -0.0181,-0.0388 -1.25419,-2.98638 1.05368,-0.40101 c 1.0282,-0.39093 1.79764,-0.48449 2.30839,-0.28112 0.0739,0.0286 0.14481,0.0848 0.21704,0.13023 0.0347,0.0724 0.0708,0.13236 0.1049,0.21032 l 0.55914,1.27641 c 0.17711,0.40361 0.38659,0.78415 0.62891,1.14205 0.11854,0.1727 0.28854,0.39484 0.51004,0.66662 l 0.076,-0.0279 5.1e-4,5.2e-4 0.63614,-0.23565 2.66547,-0.9834 -0.001,-0.003 0.49247,-0.52503 0.0687,-0.0729 0.42375,-0.45165 c 8e-5,3.7e-4 4.4e-4,7e-4 5.2e-4,0.001 l 0.37052,-0.39325 c 1.31135,0.41432 2.88351,0.28312 4.71599,-0.39326 l 1.32395,-0.48679 c 0.0515,-0.0183 0.10001,-0.0304 0.15193,-0.0496 1.29214,-0.47694 2.29378,-1.07073 3.00033,-1.77819 l 1.90066,-2.0252 0.004,-0.0227 c 0.24077,-0.26299 0.44773,-0.53914 0.61134,-0.8325 l 0.0568,0.13901 5.2e-4,-5.2e-4 0.11678,0.2868 0.40411,0.99219 0.18966,0.46457 4.35012,-1.61075 1.69705,-1.80919 0.002,-5.2e-4 -5.1e-4,-5.2e-4 0.002,-0.002 -1.30948,-3.11971 4.18476,3.23701 4.5067,-1.66863 0.94516,-1.00666 0.27234,-0.2899 0.007,-5.2e-4 c 3.25845,0.89083 9.13542,-1.79331 10.58644,-3.43028 h 5.1e-4 l 1.67019,-1.78025 0.004,-0.0134 c 0.39092,-0.4229 0.70512,-0.8835 0.92915,-1.38855 0.26688,-0.53637 0.44222,-1.10152 0.54622,-1.68878 l 0.0165,-0.0279 -0.0134,0.01 c 0.25242,-1.44986 0.0193,-3.05106 -0.71934,-4.81056 -1.06217,-2.53008 -2.59995,-4.15582 -4.61367,-4.87721 -0.78022,-0.33252 -1.6276,-0.4853 -2.54248,-0.45786 z m -0.48421,5.28236 c 1.21948,0.67828 2.24982,1.9057 2.93936,3.74189 0.42136,1.12206 0.63447,2.196303 0.29817,3.32693 -0.0249,0.077 -0.0561,0.14899 -0.0853,0.22273 -0.15987,0.08 -0.32652,0.15482 -0.50488,0.22066 -1.21561,0.4487 -2.3625,0.38489 -3.44061,-0.19121 -1.07811,-0.5761 -1.94371,-1.64169 -2.59674,-3.19722 -0.65304,-1.55553 -0.79427,-2.88863 -0.42427,-3.99924 0.0255,-0.0765 0.0578,-0.14777 0.0873,-0.22117 0.16482,-0.084 0.3375,-0.1617 0.52244,-0.22996 1.07431,-0.438856 2.20471,-0.207503 3.20453,0.32659 z m -42.53952,15.14171 c 0.1236,-0.008 0.23735,-0.006 0.34468,0.004 0.4369,0.20552 0.78479,0.60007 1.03663,1.19993 0.1128,0.26868 0.15763,0.51407 0.17105,0.74827 -0.0472,0.0183 -0.0768,0.0376 -0.12609,0.0558 l -3.47731,1.28365 -0.97617,-2.32544 1.57923,-0.60048 c 0.56703,-0.21559 1.04993,-0.33721 1.44798,-0.36484 z m -8.17676,5.05034 0.0625,0.14883 0.002,-0.01 0.18139,0.44545 0.28887,0.68833 c -0.39067,-0.11542 -0.81391,-0.173 -1.27589,-0.16175 0.36244,-0.38736 0.60108,-0.75644 0.74104,-1.11104 z m -5.31958,0.13643 c 0.25878,0.16184 0.46898,0.4117 0.6196,0.77049 0.076,0.18106 0.11556,0.34892 0.13798,0.51057 l -3.49539,1.29036 -0.64131,-1.52756 1.46451,-0.55707 c 0.72861,-0.27704 1.36342,-0.43506 1.91461,-0.48679 z m 2.92231,6.18515 c 0.12586,0.006 0.23461,0.0396 0.34933,0.0636 0.13606,0.33416 0.18476,0.63739 0.18397,0.92346 -0.0303,0.0116 -0.0495,0.0252 -0.0806,0.0367 l -3.60701,1.3317 -0.5333,-1.27072 1.88567,-0.71675 c 0.72877,-0.26863 1.32963,-0.39137 1.80196,-0.36794 z"
           sodipodi:nodetypes="cscccccccccccccccccccccccccccccccccccccccccccccccccccccccccccscccccccccccccccccccccccccccccccccccccccccccccccccccccccccccccccccccccsccccsccsssscscccsccccscccccccccccscccccccccccccc" />
        <path
           id="path11-4-1"
           style="fill:#3f4647;fill-opacity:1;stroke:none;stroke-width:1;stroke-linejoin:round;stroke-dasharray:none;stroke-opacity:1;paint-order:stroke fill markers"
           d="m -138.81634,48.048241 -3.66933,2.881997 c 0.43827,0.450279 0.83273,1.001616 1.17664,1.651244 l 1.90345,-1.495337 0.44754,0.56998 -2.03184,1.59576 c 0.0631,0.146649 0.12739,0.291762 0.18572,0.447087 0.0715,0.190461 0.12602,0.378097 0.18387,0.566311 l 4.13568,-3.24792 z m -15.64624,0.783206 -2.85953,1.055586 -1.93784,1.483873 0.0119,0.02843 0.12702,0.301727 0.0303,0.07337 0.11509,0.272839 0.44663,1.064756 4.28196,-3.362558 0.365,0.464512 z m 0.63417,1.510928 -4.40943,3.462523 0.41132,0.980383 4.41127,-3.464357 -0.1582,-0.37693 c -3.3e-4,6.96e-4 -6.2e-4,0.0016 -9.2e-4,0.0023 z m -14.51774,3.613845 -3.11907,1.150964 -1.87272,1.470575 -0.033,0.02614 -0.008,0.0055 0.0963,0.237071 0.30265,0.740561 0.13894,0.341621 4.6e-4,4.58e-4 0.26321,0.626382 4.16502,-3.270848 0.44755,0.569979 -4.32231,3.393282 0.41178,0.980383 4.63596,-3.640441 -0.85887,-2.045598 -0.002,0.0014 z m 8.82941,0.852906 -0.28063,0.220563 0.6328,0.806134 0.49294,-0.387476 z m -17.92019,7.757775 -5.28618,4.151726 1.49762,1.398582 1.9947,-1.566412 1.20508,-0.945992 1.67371,-1.314209 z m -16.45834,0.819432 -0.002,4.58e-4 -0.002,4.59e-4 -2.52295,1.932336 0.23661,0.581443 4.6e-4,-4.58e-4 0.002,0.0055 c -0.26831,-0.155078 -0.55567,-0.271033 -0.85932,-0.355378 l -0.93086,0.730931 0.82631,1.926834 3.96693,-3.115858 z m 17.54327,0.904722 -0.16462,1.050542 -1.06155,0.833188 -1.55586,1.221581 -1.55587,1.221581 0.75845,0.708463 4.51627,-3.546897 z m -16.53629,1.494419 -3.94308,3.096599 0.6328,0.806134 3.7216,-2.922349 z m -11.84897,7.798128 -2.95857,2.323481 0.79513,1.950679 3.04111,-2.388596 z m 1.19224,2.560094 -3.07138,2.411522 0.40261,0.987721 3.11356,-2.444997 z" />
        <path
           style="-inkscape-font-specification:'Helvetica Bold';fill:#e0c514;stroke:#ffffff;stroke-width:0.4;stroke-linejoin:round;stroke-dasharray:none;stroke-opacity:1;paint-order:stroke fill markers"
           d="m -203.79461,69.809264 1.27855,3.04546 3.60699,-1.33137 c 0.64434,-0.23783 1.11858,-0.54275 1.42274,-0.91476 0.30816,-0.38071 0.34029,-0.86155 0.0964,-1.44253 -0.27013,-0.64346 -0.71418,-0.97018 -1.33214,-0.98019 -0.51867,0.0255 -1.13339,0.16942 -1.84416,0.43178 z m 2.23843,5.3319 1.54605,3.68267 3.607,-1.33137 c 0.64434,-0.23784 1.11176,-0.50416 1.40229,-0.79899 0.52509,-0.54015 0.6093,-1.23502 0.25262,-2.08463 -0.3016,-0.71842 -0.82432,-1.09547 -1.56815,-1.13117 -0.41501,-0.02 -0.94267,0.0846 -1.58299,0.31373 z m 0.95932,-9.28283 c 1.81065,-0.63947 3.29193,-0.61983 4.44383,0.0589 0.69823,0.4205 1.21913,1.03993 1.5627,1.8583 0.35405,0.84336 0.41276,1.60454 0.17611,2.28353 -0.13178,0.38053 -0.39362,0.78022 -0.78552,1.19905 0.85816,-0.0209 1.59326,0.17671 2.20531,0.59295 0.61869,0.41379 1.09458,1.01737 1.42765,1.81075 0.34357,0.81837 0.43252,1.63332 0.26686,2.44484 -0.098,0.53403 -0.29466,1.02508 -0.58988,1.47317 -0.33002,0.51143 -0.79097,0.94853 -1.38285,1.3113 -0.58525,0.36032 -1.25319,0.67902 -2.00382,0.95608 l -6.656,2.45679 -5.79867,-13.81234 z m 10.70601,-1.18107 1.55785,3.71078 3.47746,-1.28356 c 0.69084,-0.255 1.1775,-0.52122 1.45997,-0.79864 0.50099,-0.48795 0.58887,-1.11925 0.26366,-1.89389 -0.35143,-0.83711 -0.88307,-1.29024 -1.59491,-1.35939 -0.40033,-0.0398 -0.93263,0.0628 -1.5969,0.30804 z m 3.19774,-3.95093 c 1.03749,-0.3613 1.8778,-0.53439 2.52094,-0.51924 0.64978,0.0127 1.25648,0.16033 1.8201,0.44292 0.46571,0.23215 0.88073,0.5263 1.24507,0.88245 0.36434,0.35615 0.6606,0.80598 0.88877,1.34947 0.27537,0.65595 0.37079,1.3675 0.28623,2.13465 -0.0872,0.76091 -0.48089,1.42212 -1.18115,1.98363 0.78509,0.006 1.41678,0.19496 1.8951,0.56676 0.48233,0.3631 0.92675,1.0288 1.33326,1.9971 l 0.38947,0.9277 c 0.26488,0.63095 0.47111,1.04907 0.61868,1.25434 0.22923,0.32666 0.52535,0.52039 0.88844,0.58118 l 0.14556,0.34672 -3.37782,1.24678 c -0.22148,-0.27179 -0.39152,-0.49403 -0.51006,-0.66673 -0.24234,-0.35789 -0.45204,-0.73865 -0.62915,-1.14226 l -0.55891,-1.27641 c -0.38313,-0.87592 -0.80233,-1.39941 -1.25771,-1.57044 -0.44876,-0.17347 -1.12485,-0.0935 -2.02826,0.23998 l -3.16857,1.16955 2.27383,5.41624 -2.99918,1.10703 -5.79867,-13.81235 z m 6.54031,-2.41409 3.11874,-1.15116 3.56418,8.48981 c 0.39864,0.94956 0.80933,1.59886 1.23206,1.94788 0.6972,0.63734 1.67021,0.72553 2.91904,0.26458 1.24219,-0.45851 1.88667,-1.14373 1.93346,-2.05568 0.0555,-0.52556 -0.116,-1.26312 -0.51464,-2.21268 l -3.56418,-8.48981 3.11876,-1.15117 3.56417,8.48981 c 0.61633,1.46807 0.85381,2.70079 0.71246,3.69815 -0.27397,1.83276 -1.68305,3.21868 -4.2272,4.15775 -2.54415,0.93907 -4.58598,0.82691 -6.12547,-0.33649 -0.82848,-0.63938 -1.55088,-1.69311 -2.16721,-3.16118 z m 13.76425,-5.08051 3.2184,-1.18794 9.89696,7.48352 -4.04806,-9.64241 2.85969,-1.05553 5.79867,13.81234 -3.06893,1.13277 -10.11724,-7.59702 4.11887,9.81108 -2.85968,1.05553 z m 25.29367,4.23556 c 1.21562,-0.44869 2.00178,-1.22589 2.35849,-2.3316 0.36336,-1.10817 0.21852,-2.44001 -0.43452,-3.99554 -0.65042,-1.54928 -1.51136,-2.6132 -2.58283,-3.19175 -1.06745,-0.58726 -2.20898,-0.65654 -3.4246,-0.20784 -1.21561,0.44869 -2.00842,1.22835 -2.37842,2.33896 -0.37,1.11062 -0.22848,2.44368 0.42456,3.99921 0.65304,1.55553 1.51862,2.62135 2.59673,3.19745 1.07811,0.5761 2.22498,0.63981 3.44059,0.19111 z m 4.9929,-7.45991 c 1.04119,2.4801 1.09781,4.6526 0.16987,6.51751 -0.65824,1.48397 -2.03691,2.61335 -4.136,3.38815 -2.0991,0.77479 -3.92886,0.82967 -5.48929,0.16464 -2.04134,-0.76892 -3.58262,-2.39343 -4.62381,-4.87353 -1.06217,-2.53008 -1.11547,-4.70381 -0.1599,-6.52119 0.65824,-1.48397 2.03691,-2.61335 4.136,-3.38814 2.0991,-0.7748 3.92886,-0.82968 5.48929,-0.16464 2.01372,0.72139 3.55167,2.34712 4.61384,4.8772 z"
           id="text4"
           inkscape:transform-center-x="-24.466637"
           inkscape:transform-center-y="-1.0565001"
           aria-label="BRUNO"
           sodipodi:nodetypes="ccscscscccscscccccscccscccscccccscscsccccsscccssccccccccscccccccscscsccscscsccccccccccccscscsssssscscscscs" />
      </g>
    </g>
  </g>
</svg>
