<?xml version="1.0" encoding="UTF-8" standalone="no"?>
<!-- Created with Inkscape (http://www.inkscape.org/) -->

<svg
   width="56mm"
   height="86mm"
   viewBox="0 0 56 86"
   version="1.1"
   id="svg1"
   inkscape:version="1.4 (e7c3feb100, 2024-10-09)"
   sodipodi:docname="eight.svg"
   xmlns:inkscape="http://www.inkscape.org/namespaces/inkscape"
   xmlns:sodipodi="http://sodipodi.sourceforge.net/DTD/sodipodi-0.dtd"
   xmlns="http://www.w3.org/2000/svg"
   xmlns:svg="http://www.w3.org/2000/svg">
  <sodipodi:namedview
     id="namedview1"
     pagecolor="#ffffff"
     bordercolor="#000000"
     borderopacity="0.25"
     inkscape:showpageshadow="2"
     inkscape:pageopacity="0.0"
     inkscape:pagecheckerboard="0"
     inkscape:deskcolor="#d1d1d1"
     inkscape:document-units="mm"
     inkscape:zoom="1.4984147"
     inkscape:cx="56.059247"
     inkscape:cy="132.47334"
     inkscape:window-width="1261"
     inkscape:window-height="1016"
     inkscape:window-x="0"
     inkscape:window-y="0"
     inkscape:window-maximized="1"
     inkscape:current-layer="g34" />
  <defs
     id="defs1" />
  <g
     inkscape:label="Layer 1"
     inkscape:groupmode="layer"
     id="layer1"
     transform="translate(-133.61458,-101.07083)">
    <g
       id="g34"
       transform="translate(541.07274,41.669305)">
      <g
         id="g36-3-5-1-3"
         transform="translate(-61.57198,0.05920551)">
        <rect
           style="fill:#f9f9f9;stroke-width:0.267626"
           id="rect1-0-9-9-7-8"
           width="56"
           height="86"
           x="-345.88602"
           y="59.401527"
           rx="3" />
        <rect
           class="suit-bg"
           style="fill-opacity:1;stroke-width:0.239968"
           id="rect1-5-6-4-8-8-0"
           width="49.007965"
           height="79.007973"
           x="-342.38998"
           y="62.897545"
           rx="2.6254268" />
        <path
           id="rect1-5-3-8-8-4-5-5"
           style="fill:none;fill-opacity:1;stroke:#f9f9f9;stroke-width:2.24;stroke-dasharray:none;stroke-opacity:1;paint-order:normal"
           d="m -304.90093,68.995259 a 19.089518,36.916687 30.07906 0 0 -34.11781,33.347321 19.089518,36.916687 30.07906 0 0 -3.37137,12.90205 v 8.39897 a 19.089518,36.916687 30.07906 0 0 11.51868,12.04578 19.089518,36.916687 30.07906 0 0 34.11833,-33.3468 19.089518,36.916687 30.07906 0 0 3.37085,-12.895856 v -8.407756 a 19.089518,36.916687 30.07906 0 0 -11.51868,-12.043709 z" />
        <g
           id="g33-1-8-7-6"
           transform="translate(0.52915727,0.4935967)">
          <text
             xml:space="preserve"
             style="font-style:normal;font-variant:normal;font-weight:bold;font-stretch:normal;font-size:38.0532px;font-family:Helvetica;-inkscape-font-specification:'Helvetica Bold';text-align:start;letter-spacing:-41.7953px;writing-mode:lr-tb;direction:ltr;text-anchor:start;fill:#1a1a1a;fill-opacity:1;stroke:#1a1a1a;stroke-width:0.866271;stroke-linejoin:miter;stroke-dasharray:none;stroke-opacity:1;paint-order:normal"
             x="-329.42383"
             y="115.66653"
             id="text33-1-2-1-4-6"><tspan
               sodipodi:role="line"
               id="tspan33-5-9-0-1-4"
               style="font-style:normal;font-variant:normal;font-weight:bold;font-stretch:normal;font-family:Helvetica;-inkscape-font-specification:'Helvetica Bold';fill:#1a1a1a;fill-opacity:1;stroke:#1a1a1a;stroke-width:0.866271;stroke-dasharray:none;stroke-opacity:1"
               x="-329.42383"
               y="115.66653">8</tspan></text>
          <g
             id="text33-3-3-8-0">
            <path
               style="-inkscape-font-specification:'Helvetica Bold';fill:#ffffff"
               d="m -321.86228,106.78574 q 0,1.98813 1.02194,3.08439 1.04052,1.09626 2.86142,1.09626 1.82091,0 2.84284,-1.09626 1.04052,-1.09626 1.04052,-3.08439 0,-2.06245 -1.0591,-3.12155 -1.04051,-1.07768 -2.82426,-1.07768 -1.78374,0 -2.84284,1.07768 -1.04052,1.0591 -1.04052,3.12155 z m -5.49987,0.35303 q 0,-2.26684 1.02193,-4.10632 1.04052,-1.83949 3.02865,-2.76852 -1.95097,-1.300649 -2.54555,-2.805683 -0.576,-1.523614 -0.576,-2.842841 0,-2.935745 2.2111,-4.998199 2.2111,-2.081034 6.2431,-2.081034 4.03201,0 6.24311,2.081034 2.21109,2.062454 2.21109,4.998199 0,1.319227 -0.59458,2.842841 -0.576,1.505034 -2.52697,2.619873 1.98813,1.11484 2.99149,2.95433 1.00336,1.83948 1.00336,4.10632 0,3.40026 -2.52697,5.79717 -2.50839,2.37833 -7.0235,2.37833 -4.5151,0 -6.83768,-2.37833 -2.32258,-2.39691 -2.32258,-5.79717 z m 5.98297,-11.928783 q 0,1.467872 0.89187,2.396906 0.91046,0.929033 2.50839,0.929033 1.61652,0 2.48981,-0.929033 0.89187,-0.929034 0.89187,-2.396906 0,-1.597937 -0.89187,-2.489809 -0.87329,-0.910453 -2.48981,-0.910453 -1.59793,0 -2.50839,0.910453 -0.89187,0.891872 -0.89187,2.489809 z"
               id="path61" />
            <path
               style="-inkscape-font-specification:'Helvetica Bold';fill:#1a1a1a"
               d="m -317.97852,87.103516 c -2.76139,0 -4.96943,0.721074 -6.53906,2.197265 -1.54902,1.44489 -2.34961,3.248549 -2.34961,5.314453 0,0.942523 0.20685,1.941673 0.60547,2.996094 v 0.0039 l 0.002,0.002 c 0.37828,0.957525 1.17651,1.811725 2.23047,2.607422 -1.12,0.6424 -2.05693,1.47899 -2.6875,2.59375 l -0.002,0.002 v 0.002 c -0.71797,1.29234 -1.07617,2.74009 -1.07617,4.3164 0,2.36546 0.82374,4.42816 2.44336,6.09961 h 0.002 c 1.64641,1.68593 4.06232,2.50977 7.14844,2.50977 3.08612,0 5.55389,-0.82322 7.32031,-2.49805 1.75884,-1.66832 2.66211,-3.73719 2.66211,-6.11133 0,-1.57513 -0.35192,-3.02247 -1.05664,-4.31445 -0.61151,-1.12109 -1.53491,-2.01353 -2.6543,-2.74805 1.04894,-0.703544 1.84819,-1.50401 2.21485,-2.460935 v -0.002 c 0.41127,-1.054456 0.62304,-2.05408 0.62304,-2.998047 0,-2.065357 -0.79944,-3.867802 -2.34765,-5.3125 -1.56975,-1.477411 -3.77654,-2.199218 -6.53907,-2.199218 z m 0,0.865234 c 2.61349,0 4.56693,0.66559 5.94532,1.962891 l 0.002,0.002 c 1.3991,1.305049 2.07422,2.833217 2.07422,4.68164 0,0.814413 -0.18541,1.709245 -0.56641,2.685547 v 0.002 c -0.33841,0.884237 -1.0942,1.687758 -2.33789,2.398438 l -0.66406,0.380854 0.66797,0.37305 c 1.26389,0.70872 2.19333,1.63211 2.82226,2.78515 0.63309,1.16066 0.95118,2.45112 0.95118,3.89844 0,2.15954 -0.78213,3.95486 -2.39258,5.48242 -1.5781,1.49628 -3.79059,2.25977 -6.72461,2.25977 -2.93278,0 -5.07701,-0.76215 -6.52735,-2.24609 l -0.002,-0.002 c -1.47581,-1.52399 -2.19922,-3.32689 -2.19922,-5.49414 0,-1.44455 0.32361,-2.73327 0.9668,-3.89258 v -0.002 c 4.1e-4,-7.4e-4 0.002,-0.001 0.002,-0.002 0.65076,-1.14869 1.58108,-2.00139 2.83203,-2.58594 l 0.69727,-0.32617 -0.64063,-0.425779 c -1.25058,-0.833725 -2.02523,-1.709231 -2.3789,-2.59961 C -325.82055,96.327623 -326,95.431681 -326,94.615234 c 0,-1.848422 0.67511,-3.376591 2.07422,-4.68164 v -0.002 c 1.37838,-1.297301 3.33378,-1.962891 5.94726,-1.962891 z m 0,3.408203 c -1.14754,0 -2.11789,0.340552 -2.81445,1.037109 -0.68604,0.686038 -1.01953,1.651001 -1.01953,2.796875 0,1.066305 0.34017,1.993745 1.01367,2.695313 v 0.002 l 0.002,0.002 c 0.69563,0.709826 1.66913,1.058594 2.81835,1.058594 1.15958,0 2.12927,-0.347312 2.80274,-1.0625 l 0.002,-0.002 c 0.67224,-0.701335 1.00977,-1.628059 1.00977,-2.69336 0,-1.145218 -0.33429,-2.108958 -1.01953,-2.794921 -2.5e-4,-2.56e-4 2.4e-4,-0.0017 0,-0.002 -0.67432,-0.698534 -1.63982,-1.037109 -2.79493,-1.037109 z m 0,0.865234 c 0.99637,0 1.68797,0.266728 2.17774,0.777344 l 0.002,0.0039 0.004,0.0039 c 0.50312,0.503124 0.76367,1.198885 0.76367,2.183593 0,0.890858 -0.25387,1.55856 -0.76953,2.095704 l -0.002,0.002 -0.002,0.002 c -0.49084,0.522177 -1.17912,0.792969 -2.17383,0.792969 -0.98134,0 -1.6809,-0.269944 -2.19921,-0.798829 -0.5145,-0.536836 -0.76758,-1.203892 -0.76758,-2.09375 0,-0.984708 0.26055,-1.680469 0.76367,-2.183593 0.51738,-0.51738 1.2201,-0.785157 2.20312,-0.785157 z m 0,9.912113 c -1.27638,0 -2.36107,0.40187 -3.15234,1.20703 -0.79218,0.80633 -1.16406,1.97602 -1.16406,3.42383 0,1.39963 0.36833,2.55449 1.13867,3.38086 l 0.002,0.002 c 0.78053,0.82234 1.87493,1.23242 3.17578,1.23242 1.29917,0 2.38764,-0.40988 3.15625,-1.23242 0.78369,-0.82567 1.16016,-1.98183 1.16016,-3.38281 0,-1.44615 -0.37955,-2.61655 -1.18164,-3.42188 -0.77958,-0.80743 -1.85837,-1.20898 -3.13477,-1.20898 z m 0,0.86523 c 1.10194,0 1.90396,0.31583 2.51172,0.94531 l 0.004,0.004 0.002,0.002 c 0.60667,0.60667 0.93164,1.51363 0.93164,2.81446 0,1.24985 -0.3182,2.15109 -0.92187,2.78711 v 0.002 h -0.002 c -0.5938,0.63698 -1.39838,0.95898 -2.5254,0.95898 -1.12583,0 -1.93829,-0.32097 -2.54492,-0.95898 l -0.002,-0.002 c -0.5911,-0.63522 -0.9043,-1.53715 -0.9043,-2.78711 0,-1.30131 0.32156,-2.21061 0.91602,-2.81641 0.62086,-0.63175 1.43322,-0.94922 2.53515,-0.94922 z"
               id="path62" />
          </g>
        </g>
        <g
           id="g33-1-8-7-6-7"
           transform="matrix(0.49064526,0,0,0.49064526,-178.92287,23.335382)">
          <text
             xml:space="preserve"
             style="font-style:normal;font-variant:normal;font-weight:bold;font-stretch:normal;font-size:38.0532px;font-family:Helvetica;-inkscape-font-specification:'Helvetica Bold';text-align:start;letter-spacing:-41.7953px;writing-mode:lr-tb;direction:ltr;text-anchor:start;fill:#1a1a1a;fill-opacity:1;stroke:#1a1a1a;stroke-width:0.866271;stroke-linejoin:miter;stroke-dasharray:none;stroke-opacity:1;paint-order:normal"
             x="-329.42383"
             y="115.66653"
             id="text33-1-2-1-4-6-0"><tspan
               sodipodi:role="line"
               id="tspan33-5-9-0-1-4-8"
               style="font-style:normal;font-variant:normal;font-weight:bold;font-stretch:normal;font-family:Helvetica;-inkscape-font-specification:'Helvetica Bold';fill:#1a1a1a;fill-opacity:1;stroke:#1a1a1a;stroke-width:0.866271;stroke-dasharray:none;stroke-opacity:1"
               x="-329.42383"
               y="115.66653">8</tspan></text>
          <g
             id="text33-3-3-8-0-6">
            <path
               style="-inkscape-font-specification:'Helvetica Bold';fill:#ffffff"
               d="m -321.86228,106.78574 q 0,1.98813 1.02194,3.08439 1.04052,1.09626 2.86142,1.09626 1.82091,0 2.84284,-1.09626 1.04052,-1.09626 1.04052,-3.08439 0,-2.06245 -1.0591,-3.12155 -1.04051,-1.07768 -2.82426,-1.07768 -1.78374,0 -2.84284,1.07768 -1.04052,1.0591 -1.04052,3.12155 z m -5.49987,0.35303 q 0,-2.26684 1.02193,-4.10632 1.04052,-1.83949 3.02865,-2.76852 -1.95097,-1.300649 -2.54555,-2.805683 -0.576,-1.523614 -0.576,-2.842841 0,-2.935745 2.2111,-4.998199 2.2111,-2.081034 6.2431,-2.081034 4.03201,0 6.24311,2.081034 2.21109,2.062454 2.21109,4.998199 0,1.319227 -0.59458,2.842841 -0.576,1.505034 -2.52697,2.619873 1.98813,1.11484 2.99149,2.95433 1.00336,1.83948 1.00336,4.10632 0,3.40026 -2.52697,5.79717 -2.50839,2.37833 -7.0235,2.37833 -4.5151,0 -6.83768,-2.37833 -2.32258,-2.39691 -2.32258,-5.79717 z m 5.98297,-11.928783 q 0,1.467872 0.89187,2.396906 0.91046,0.929033 2.50839,0.929033 1.61652,0 2.48981,-0.929033 0.89187,-0.929034 0.89187,-2.396906 0,-1.597937 -0.89187,-2.489809 -0.87329,-0.910453 -2.48981,-0.910453 -1.59793,0 -2.50839,0.910453 -0.89187,0.891872 -0.89187,2.489809 z"
               id="path61-2" />
            <path
               style="-inkscape-font-specification:'Helvetica Bold';fill:#1a1a1a"
               d="m -317.97852,87.103516 c -2.76139,0 -4.96943,0.721074 -6.53906,2.197265 -1.54902,1.44489 -2.34961,3.248549 -2.34961,5.314453 0,0.942523 0.20685,1.941673 0.60547,2.996094 v 0.0039 l 0.002,0.002 c 0.37828,0.957525 1.17651,1.811725 2.23047,2.607422 -1.12,0.6424 -2.05693,1.47899 -2.6875,2.59375 l -0.002,0.002 v 0.002 c -0.71797,1.29234 -1.07617,2.74009 -1.07617,4.3164 0,2.36546 0.82374,4.42816 2.44336,6.09961 h 0.002 c 1.64641,1.68593 4.06232,2.50977 7.14844,2.50977 3.08612,0 5.55389,-0.82322 7.32031,-2.49805 1.75884,-1.66832 2.66211,-3.73719 2.66211,-6.11133 0,-1.57513 -0.35192,-3.02247 -1.05664,-4.31445 -0.61151,-1.12109 -1.53491,-2.01353 -2.6543,-2.74805 1.04894,-0.703544 1.84819,-1.50401 2.21485,-2.460935 v -0.002 c 0.41127,-1.054456 0.62304,-2.05408 0.62304,-2.998047 0,-2.065357 -0.79944,-3.867802 -2.34765,-5.3125 -1.56975,-1.477411 -3.77654,-2.199218 -6.53907,-2.199218 z m 0,0.865234 c 2.61349,0 4.56693,0.66559 5.94532,1.962891 l 0.002,0.002 c 1.3991,1.305049 2.07422,2.833217 2.07422,4.68164 0,0.814413 -0.18541,1.709245 -0.56641,2.685547 v 0.002 c -0.33841,0.884237 -1.0942,1.687758 -2.33789,2.398438 l -0.66406,0.380854 0.66797,0.37305 c 1.26389,0.70872 2.19333,1.63211 2.82226,2.78515 0.63309,1.16066 0.95118,2.45112 0.95118,3.89844 0,2.15954 -0.78213,3.95486 -2.39258,5.48242 -1.5781,1.49628 -3.79059,2.25977 -6.72461,2.25977 -2.93278,0 -5.07701,-0.76215 -6.52735,-2.24609 l -0.002,-0.002 c -1.47581,-1.52399 -2.19922,-3.32689 -2.19922,-5.49414 0,-1.44455 0.32361,-2.73327 0.9668,-3.89258 v -0.002 c 4.1e-4,-7.4e-4 0.002,-0.001 0.002,-0.002 0.65076,-1.14869 1.58108,-2.00139 2.83203,-2.58594 l 0.69727,-0.32617 -0.64063,-0.425779 c -1.25058,-0.833725 -2.02523,-1.709231 -2.3789,-2.59961 C -325.82055,96.327623 -326,95.431681 -326,94.615234 c 0,-1.848422 0.67511,-3.376591 2.07422,-4.68164 v -0.002 c 1.37838,-1.297301 3.33378,-1.962891 5.94726,-1.962891 z m 0,3.408203 c -1.14754,0 -2.11789,0.340552 -2.81445,1.037109 -0.68604,0.686038 -1.01953,1.651001 -1.01953,2.796875 0,1.066305 0.34017,1.993745 1.01367,2.695313 v 0.002 l 0.002,0.002 c 0.69563,0.709826 1.66913,1.058594 2.81835,1.058594 1.15958,0 2.12927,-0.347312 2.80274,-1.0625 l 0.002,-0.002 c 0.67224,-0.701335 1.00977,-1.628059 1.00977,-2.69336 0,-1.145218 -0.33429,-2.108958 -1.01953,-2.794921 -2.5e-4,-2.56e-4 2.4e-4,-0.0017 0,-0.002 -0.67432,-0.698534 -1.63982,-1.037109 -2.79493,-1.037109 z m 0,0.865234 c 0.99637,0 1.68797,0.266728 2.17774,0.777344 l 0.002,0.0039 0.004,0.0039 c 0.50312,0.503124 0.76367,1.198885 0.76367,2.183593 0,0.890858 -0.25387,1.55856 -0.76953,2.095704 l -0.002,0.002 -0.002,0.002 c -0.49084,0.522177 -1.17912,0.792969 -2.17383,0.792969 -0.98134,0 -1.6809,-0.269944 -2.19921,-0.798829 -0.5145,-0.536836 -0.76758,-1.203892 -0.76758,-2.09375 0,-0.984708 0.26055,-1.680469 0.76367,-2.183593 0.51738,-0.51738 1.2201,-0.785157 2.20312,-0.785157 z m 0,9.912113 c -1.27638,0 -2.36107,0.40187 -3.15234,1.20703 -0.79218,0.80633 -1.16406,1.97602 -1.16406,3.42383 0,1.39963 0.36833,2.55449 1.13867,3.38086 l 0.002,0.002 c 0.78053,0.82234 1.87493,1.23242 3.17578,1.23242 1.29917,0 2.38764,-0.40988 3.15625,-1.23242 0.78369,-0.82567 1.16016,-1.98183 1.16016,-3.38281 0,-1.44615 -0.37955,-2.61655 -1.18164,-3.42188 -0.77958,-0.80743 -1.85837,-1.20898 -3.13477,-1.20898 z m 0,0.86523 c 1.10194,0 1.90396,0.31583 2.51172,0.94531 l 0.004,0.004 0.002,0.002 c 0.60667,0.60667 0.93164,1.51363 0.93164,2.81446 0,1.24985 -0.3182,2.15109 -0.92187,2.78711 v 0.002 h -0.002 c -0.5938,0.63698 -1.39838,0.95898 -2.5254,0.95898 -1.12583,0 -1.93829,-0.32097 -2.54492,-0.95898 l -0.002,-0.002 c -0.5911,-0.63522 -0.9043,-1.53715 -0.9043,-2.78711 0,-1.30131 0.32156,-2.21061 0.91602,-2.81641 0.62086,-0.63175 1.43322,-0.94922 2.53515,-0.94922 z"
               id="path62-4" />
          </g>
        </g>
        <g
           id="g33-1-8-7-6-7-5"
           transform="matrix(-0.49064526,0,0,-0.49064526,-456.84915,181.46769)">
          <text
             xml:space="preserve"
             style="font-style:normal;font-variant:normal;font-weight:bold;font-stretch:normal;font-size:38.0532px;font-family:Helvetica;-inkscape-font-specification:'Helvetica Bold';text-align:start;letter-spacing:-41.7953px;writing-mode:lr-tb;direction:ltr;text-anchor:start;fill:#1a1a1a;fill-opacity:1;stroke:#1a1a1a;stroke-width:0.866271;stroke-linejoin:miter;stroke-dasharray:none;stroke-opacity:1;paint-order:normal"
             x="-329.42383"
             y="115.66653"
             id="text33-1-2-1-4-6-0-2"><tspan
               sodipodi:role="line"
               id="tspan33-5-9-0-1-4-8-0"
               style="font-style:normal;font-variant:normal;font-weight:bold;font-stretch:normal;font-family:Helvetica;-inkscape-font-specification:'Helvetica Bold';fill:#1a1a1a;fill-opacity:1;stroke:#1a1a1a;stroke-width:0.866271;stroke-dasharray:none;stroke-opacity:1"
               x="-329.42383"
               y="115.66653">8</tspan></text>
          <g
             id="text33-3-3-8-0-6-2">
            <path
               style="-inkscape-font-specification:'Helvetica Bold';fill:#ffffff"
               d="m -321.86228,106.78574 q 0,1.98813 1.02194,3.08439 1.04052,1.09626 2.86142,1.09626 1.82091,0 2.84284,-1.09626 1.04052,-1.09626 1.04052,-3.08439 0,-2.06245 -1.0591,-3.12155 -1.04051,-1.07768 -2.82426,-1.07768 -1.78374,0 -2.84284,1.07768 -1.04052,1.0591 -1.04052,3.12155 z m -5.49987,0.35303 q 0,-2.26684 1.02193,-4.10632 1.04052,-1.83949 3.02865,-2.76852 -1.95097,-1.300649 -2.54555,-2.805683 -0.576,-1.523614 -0.576,-2.842841 0,-2.935745 2.2111,-4.998199 2.2111,-2.081034 6.2431,-2.081034 4.03201,0 6.24311,2.081034 2.21109,2.062454 2.21109,4.998199 0,1.319227 -0.59458,2.842841 -0.576,1.505034 -2.52697,2.619873 1.98813,1.11484 2.99149,2.95433 1.00336,1.83948 1.00336,4.10632 0,3.40026 -2.52697,5.79717 -2.50839,2.37833 -7.0235,2.37833 -4.5151,0 -6.83768,-2.37833 -2.32258,-2.39691 -2.32258,-5.79717 z m 5.98297,-11.928783 q 0,1.467872 0.89187,2.396906 0.91046,0.929033 2.50839,0.929033 1.61652,0 2.48981,-0.929033 0.89187,-0.929034 0.89187,-2.396906 0,-1.597937 -0.89187,-2.489809 -0.87329,-0.910453 -2.48981,-0.910453 -1.59793,0 -2.50839,0.910453 -0.89187,0.891872 -0.89187,2.489809 z"
               id="path61-2-9" />
            <path
               style="-inkscape-font-specification:'Helvetica Bold';fill:#1a1a1a"
               d="m -317.97852,87.103516 c -2.76139,0 -4.96943,0.721074 -6.53906,2.197265 -1.54902,1.44489 -2.34961,3.248549 -2.34961,5.314453 0,0.942523 0.20685,1.941673 0.60547,2.996094 v 0.0039 l 0.002,0.002 c 0.37828,0.957525 1.17651,1.811725 2.23047,2.607422 -1.12,0.6424 -2.05693,1.47899 -2.6875,2.59375 l -0.002,0.002 v 0.002 c -0.71797,1.29234 -1.07617,2.74009 -1.07617,4.3164 0,2.36546 0.82374,4.42816 2.44336,6.09961 h 0.002 c 1.64641,1.68593 4.06232,2.50977 7.14844,2.50977 3.08612,0 5.55389,-0.82322 7.32031,-2.49805 1.75884,-1.66832 2.66211,-3.73719 2.66211,-6.11133 0,-1.57513 -0.35192,-3.02247 -1.05664,-4.31445 -0.61151,-1.12109 -1.53491,-2.01353 -2.6543,-2.74805 1.04894,-0.703544 1.84819,-1.50401 2.21485,-2.460935 v -0.002 c 0.41127,-1.054456 0.62304,-2.05408 0.62304,-2.998047 0,-2.065357 -0.79944,-3.867802 -2.34765,-5.3125 -1.56975,-1.477411 -3.77654,-2.199218 -6.53907,-2.199218 z m 0,0.865234 c 2.61349,0 4.56693,0.66559 5.94532,1.962891 l 0.002,0.002 c 1.3991,1.305049 2.07422,2.833217 2.07422,4.68164 0,0.814413 -0.18541,1.709245 -0.56641,2.685547 v 0.002 c -0.33841,0.884237 -1.0942,1.687758 -2.33789,2.398438 l -0.66406,0.380854 0.66797,0.37305 c 1.26389,0.70872 2.19333,1.63211 2.82226,2.78515 0.63309,1.16066 0.95118,2.45112 0.95118,3.89844 0,2.15954 -0.78213,3.95486 -2.39258,5.48242 -1.5781,1.49628 -3.79059,2.25977 -6.72461,2.25977 -2.93278,0 -5.07701,-0.76215 -6.52735,-2.24609 l -0.002,-0.002 c -1.47581,-1.52399 -2.19922,-3.32689 -2.19922,-5.49414 0,-1.44455 0.32361,-2.73327 0.9668,-3.89258 v -0.002 c 4.1e-4,-7.4e-4 0.002,-0.001 0.002,-0.002 0.65076,-1.14869 1.58108,-2.00139 2.83203,-2.58594 l 0.69727,-0.32617 -0.64063,-0.425779 c -1.25058,-0.833725 -2.02523,-1.709231 -2.3789,-2.59961 C -325.82055,96.327623 -326,95.431681 -326,94.615234 c 0,-1.848422 0.67511,-3.376591 2.07422,-4.68164 v -0.002 c 1.37838,-1.297301 3.33378,-1.962891 5.94726,-1.962891 z m 0,3.408203 c -1.14754,0 -2.11789,0.340552 -2.81445,1.037109 -0.68604,0.686038 -1.01953,1.651001 -1.01953,2.796875 0,1.066305 0.34017,1.993745 1.01367,2.695313 v 0.002 l 0.002,0.002 c 0.69563,0.709826 1.66913,1.058594 2.81835,1.058594 1.15958,0 2.12927,-0.347312 2.80274,-1.0625 l 0.002,-0.002 c 0.67224,-0.701335 1.00977,-1.628059 1.00977,-2.69336 0,-1.145218 -0.33429,-2.108958 -1.01953,-2.794921 -2.5e-4,-2.56e-4 2.4e-4,-0.0017 0,-0.002 -0.67432,-0.698534 -1.63982,-1.037109 -2.79493,-1.037109 z m 0,0.865234 c 0.99637,0 1.68797,0.266728 2.17774,0.777344 l 0.002,0.0039 0.004,0.0039 c 0.50312,0.503124 0.76367,1.198885 0.76367,2.183593 0,0.890858 -0.25387,1.55856 -0.76953,2.095704 l -0.002,0.002 -0.002,0.002 c -0.49084,0.522177 -1.17912,0.792969 -2.17383,0.792969 -0.98134,0 -1.6809,-0.269944 -2.19921,-0.798829 -0.5145,-0.536836 -0.76758,-1.203892 -0.76758,-2.09375 0,-0.984708 0.26055,-1.680469 0.76367,-2.183593 0.51738,-0.51738 1.2201,-0.785157 2.20312,-0.785157 z m 0,9.912113 c -1.27638,0 -2.36107,0.40187 -3.15234,1.20703 -0.79218,0.80633 -1.16406,1.97602 -1.16406,3.42383 0,1.39963 0.36833,2.55449 1.13867,3.38086 l 0.002,0.002 c 0.78053,0.82234 1.87493,1.23242 3.17578,1.23242 1.29917,0 2.38764,-0.40988 3.15625,-1.23242 0.78369,-0.82567 1.16016,-1.98183 1.16016,-3.38281 0,-1.44615 -0.37955,-2.61655 -1.18164,-3.42188 -0.77958,-0.80743 -1.85837,-1.20898 -3.13477,-1.20898 z m 0,0.86523 c 1.10194,0 1.90396,0.31583 2.51172,0.94531 l 0.004,0.004 0.002,0.002 c 0.60667,0.60667 0.93164,1.51363 0.93164,2.81446 0,1.24985 -0.3182,2.15109 -0.92187,2.78711 v 0.002 h -0.002 c -0.5938,0.63698 -1.39838,0.95898 -2.5254,0.95898 -1.12583,0 -1.93829,-0.32097 -2.54492,-0.95898 l -0.002,-0.002 c -0.5911,-0.63522 -0.9043,-1.53715 -0.9043,-2.78711 0,-1.30131 0.32156,-2.21061 0.91602,-2.81641 0.62086,-0.63175 1.43322,-0.94922 2.53515,-0.94922 z"
               id="path62-4-0" />
          </g>
        </g>
        <g
           id="g33-0-0-4-9-4"
           transform="matrix(0.49032372,0,0,0.49032372,-179.11968,22.332859)" />
        <g
           id="g33-0-7-9-6-8-5"
           transform="matrix(-0.49032372,0,0,-0.49032372,-456.65231,182.47019)" />
      </g>
    </g>
  </g>
</svg>
