<?xml version="1.0" encoding="UTF-8" standalone="no"?>
<!-- Created with Inkscape (http://www.inkscape.org/) -->

<svg
   width="56mm"
   height="86mm"
   viewBox="0 0 56 86"
   version="1.1"
   id="svg1"
   inkscape:version="1.4 (e7c3feb100, 2024-10-09)"
   sodipodi:docname="four.svg"
   xmlns:inkscape="http://www.inkscape.org/namespaces/inkscape"
   xmlns:sodipodi="http://sodipodi.sourceforge.net/DTD/sodipodi-0.dtd"
   xmlns="http://www.w3.org/2000/svg"
   xmlns:svg="http://www.w3.org/2000/svg">
  <sodipodi:namedview
     id="namedview1"
     pagecolor="#ffffff"
     bordercolor="#000000"
     borderopacity="0.25"
     inkscape:showpageshadow="2"
     inkscape:pageopacity="0.0"
     inkscape:pagecheckerboard="0"
     inkscape:deskcolor="#d1d1d1"
     inkscape:document-units="mm"
     inkscape:zoom="1.0595392"
     inkscape:cx="32.089422"
     inkscape:cy="119.39152"
     inkscape:window-width="1261"
     inkscape:window-height="1016"
     inkscape:window-x="0"
     inkscape:window-y="0"
     inkscape:window-maximized="1"
     inkscape:current-layer="g34" />
  <defs
     id="defs1" />
  <g
     inkscape:label="Layer 1"
     inkscape:groupmode="layer"
     id="layer1"
     transform="translate(-133.61458,-101.07083)">
    <g
       id="g34"
       transform="translate(541.07274,41.669305)">
      <g
         id="g123"
         transform="translate(-227.25411,-74.975718)">
        <rect
           style="fill:#f9f9f9;stroke-width:0.26762"
           id="rect1-0-9-9-3"
           width="55.998787"
           height="85.998138"
           x="-180.20346"
           y="134.37817"
           rx="2.9999352" />
        <rect
           class="suit-bg"
           style="fill-opacity:1;stroke-width:0.239963"
           id="rect1-5-6-4-8-86"
           width="49.006905"
           height="79.006264"
           x="-176.7075"
           y="137.87411"
           rx="2.62537" />
        <path
           id="rect1-5-3-8-8-4-0"
           style="fill:none;fill-opacity:1;stroke:#f9f9f9;stroke-width:2.23995;stroke-dasharray:none;stroke-opacity:1;paint-order:normal"
           d="m -139.21926,143.9717 a 19.089105,36.915888 30.07906 0 0 -34.11707,33.3466 19.089105,36.915888 30.07906 0 0 -3.3713,12.90177 v 8.39879 a 19.089105,36.915888 30.07906 0 0 11.51843,12.04551 19.089105,36.915888 30.07906 0 0 34.11759,-33.34607 19.089105,36.915888 30.07906 0 0 3.37078,-12.89558 v -8.40757 a 19.089105,36.915888 30.07906 0 0 -11.51843,-12.04345 z" />
        <g
           id="g33-1-8-4"
           transform="matrix(0.99997835,0,0,0.99997835,166.20422,75.471518)">
          <g
             id="text33-1-2-1-8">
            <path
               style="-inkscape-font-specification:'Helvetica Bold';fill:#1a1a1a"
               d="m -309.52394,109.86936 h -3.04723 v 5.79717 h -5.184 v -5.79717 h -10.6653 v -4.62659 l 9.90349,-16.35098 h 5.94581 v 16.83408 h 3.04723 z m -8.23123,-4.14349 V 94.094376 l -6.74478,11.631494 z"
               id="path65" />
            <path
               style="-inkscape-font-specification:'Helvetica Bold';fill:#1a1a1a"
               d="m -318.76172,88.458984 -10.0918,16.662106 v 5.18164 h 10.66602 v 5.79688 h 6.04883 l 1.05859,-1.05859 -1.05859,-4.73829 h 3.04883 l 1.05664,-1.05859 -1.05664,-3.95117 h -3.04883 V 88.458984 l -5.56445,-1.058593 z m 0.48828,0.865235 h 5.26953 V 106.1582 h 3.04688 v 3.27735 h -3.04688 v 5.79687 h -4.31836 v -5.79687 h -10.66601 v -4.07227 z m 0.95117,3.160156 -7.92968,13.673825 h 7.92968 z m -0.86523,3.21875 v 9.589845 h -5.56055 z"
               id="path66"
               sodipodi:nodetypes="ccccccccccccccccccccccccccccccccccc" />
          </g>
          <g
             id="text33-3-3-89">
            <path
               style="-inkscape-font-specification:'Helvetica Bold';fill:#ffffff"
               d="m -308.46562,108.81103 h -3.04723 v 5.79717 h -5.184 v -5.79717 h -10.6653 v -4.62658 l 9.90349,-16.350987 h 5.94581 v 16.834077 h 3.04723 z m -8.23123,-4.14349 V 93.036049 l -6.74478,11.631491 z"
               id="path53" />
            <path
               style="color:#000000;font-style:normal;font-variant:normal;font-weight:normal;font-stretch:normal;font-size:medium;line-height:normal;font-family:sans-serif;-inkscape-font-specification:'Helvetica Bold';font-variant-ligatures:normal;font-variant-position:normal;font-variant-caps:normal;font-variant-numeric:normal;font-variant-alternates:normal;font-variant-east-asian:normal;font-feature-settings:normal;font-variation-settings:normal;text-indent:0;text-align:start;text-decoration-line:none;text-decoration-style:solid;text-decoration-color:#000000;letter-spacing:normal;word-spacing:normal;text-transform:none;writing-mode:lr-tb;direction:ltr;text-orientation:mixed;dominant-baseline:auto;baseline-shift:baseline;text-anchor:start;white-space:normal;shape-padding:0;shape-margin:0;inline-size:0;clip-rule:nonzero;display:inline;overflow:visible;visibility:visible;isolation:auto;mix-blend-mode:normal;color-interpolation:sRGB;color-interpolation-filters:linearRGB;solid-color:#000000;solid-opacity:1;vector-effect:none;fill:#1a1a1a;fill-opacity:1;fill-rule:nonzero;stroke:none;stroke-linecap:butt;stroke-linejoin:miter;stroke-miterlimit:4;stroke-dasharray:none;stroke-dashoffset:0;stroke-opacity:1;-inkscape-stroke:none;color-rendering:auto;image-rendering:auto;shape-rendering:auto;text-rendering:auto;enable-background:accumulate;stop-color:#000000;stop-opacity:1"
               d="m -317.70312,87.400391 -10.0918,16.664059 v 5.17969 h 10.66406 v 5.79688 h 6.05078 v -5.79688 h 3.04688 v -5.00976 h -3.04688 V 87.400391 Z m 0.48828,0.865234 h 5.26953 v 16.835935 h 3.04687 v 3.27539 h -3.04687 v 5.79883 h -4.31836 v -5.79883 h -10.66602 v -4.07226 z m 0.95117,3.160156 -7.92969,13.675779 h 7.92969 z m -0.86719,3.222656 v 9.585943 h -5.55859 z"
               id="path54"
               sodipodi:nodetypes="cccccccccccccccccccccccccccccccc" />
          </g>
        </g>
        <g
           id="g33-1-8-4-8"
           transform="matrix(0.50778156,0,0,0.50778156,-7.6051184,96.139364)">
          <g
             id="text33-1-2-1-8-3">
            <path
               style="-inkscape-font-specification:'Helvetica Bold';fill:#1a1a1a"
               d="m -309.52394,109.86936 h -3.04723 v 5.79717 h -5.184 v -5.79717 h -10.6653 v -4.62659 l 9.90349,-16.35098 h 5.94581 v 16.83408 h 3.04723 z m -8.23123,-4.14349 V 94.094376 l -6.74478,11.631494 z"
               id="path65-8" />
            <path
               style="-inkscape-font-specification:'Helvetica Bold';fill:#1a1a1a"
               d="m -318.76172,88.458984 -10.0918,16.662106 v 5.18164 h 10.66602 v 5.79688 h 6.04883 l 1.05859,-1.05859 -1.05859,-4.73829 h 3.04883 l 1.05664,-1.05859 -1.05664,-3.95117 h -3.04883 V 88.458984 l -5.56445,-1.058593 z m 0.48828,0.865235 h 5.26953 V 106.1582 h 3.04688 v 3.27735 h -3.04688 v 5.79687 h -4.31836 v -5.79687 h -10.66601 v -4.07227 z m 0.95117,3.160156 -7.92968,13.673825 h 7.92968 z m -0.86523,3.21875 v 9.589845 h -5.56055 z"
               id="path66-3"
               sodipodi:nodetypes="ccccccccccccccccccccccccccccccccccc" />
          </g>
          <g
             id="text33-3-3-89-3">
            <path
               style="-inkscape-font-specification:'Helvetica Bold';fill:#ffffff"
               d="m -308.46562,108.81103 h -3.04723 v 5.79717 h -5.184 v -5.79717 h -10.6653 v -4.62658 l 9.90349,-16.350987 h 5.94581 v 16.834077 h 3.04723 z m -8.23123,-4.14349 V 93.036049 l -6.74478,11.631491 z"
               id="path53-3" />
            <path
               style="color:#000000;font-style:normal;font-variant:normal;font-weight:normal;font-stretch:normal;font-size:medium;line-height:normal;font-family:sans-serif;-inkscape-font-specification:'Helvetica Bold';font-variant-ligatures:normal;font-variant-position:normal;font-variant-caps:normal;font-variant-numeric:normal;font-variant-alternates:normal;font-variant-east-asian:normal;font-feature-settings:normal;font-variation-settings:normal;text-indent:0;text-align:start;text-decoration-line:none;text-decoration-style:solid;text-decoration-color:#000000;letter-spacing:normal;word-spacing:normal;text-transform:none;writing-mode:lr-tb;direction:ltr;text-orientation:mixed;dominant-baseline:auto;baseline-shift:baseline;text-anchor:start;white-space:normal;shape-padding:0;shape-margin:0;inline-size:0;clip-rule:nonzero;display:inline;overflow:visible;visibility:visible;isolation:auto;mix-blend-mode:normal;color-interpolation:sRGB;color-interpolation-filters:linearRGB;solid-color:#000000;solid-opacity:1;vector-effect:none;fill:#1a1a1a;fill-opacity:1;fill-rule:nonzero;stroke:none;stroke-linecap:butt;stroke-linejoin:miter;stroke-miterlimit:4;stroke-dasharray:none;stroke-dashoffset:0;stroke-opacity:1;-inkscape-stroke:none;color-rendering:auto;image-rendering:auto;shape-rendering:auto;text-rendering:auto;enable-background:accumulate;stop-color:#000000;stop-opacity:1"
               d="m -317.70312,87.400391 -10.0918,16.664059 v 5.17969 h 10.66406 v 5.79688 h 6.05078 v -5.79688 h 3.04688 v -5.00976 h -3.04688 V 87.400391 Z m 0.48828,0.865234 h 5.26953 v 16.835935 h 3.04687 v 3.27539 h -3.04687 v 5.79883 h -4.31836 v -5.79883 h -10.66602 v -4.07226 z m 0.95117,3.160156 -7.92969,13.675779 h 7.92969 z m -0.86719,3.222656 v 9.585943 h -5.55859 z"
               id="path54-8"
               sodipodi:nodetypes="cccccccccccccccccccccccccccccccc" />
          </g>
        </g>
        <g
           id="g33-1-8-4-8-2"
           transform="matrix(-0.50778156,0,0,-0.50778156,-296.80298,258.61514)">
          <g
             id="text33-1-2-1-8-3-0">
            <path
               style="-inkscape-font-specification:'Helvetica Bold';fill:#1a1a1a"
               d="m -309.52394,109.86936 h -3.04723 v 5.79717 h -5.184 v -5.79717 h -10.6653 v -4.62659 l 9.90349,-16.35098 h 5.94581 v 16.83408 h 3.04723 z m -8.23123,-4.14349 V 94.094376 l -6.74478,11.631494 z"
               id="path65-8-7" />
            <path
               style="-inkscape-font-specification:'Helvetica Bold';fill:#1a1a1a"
               d="m -318.76172,88.458984 -10.0918,16.662106 v 5.18164 h 10.66602 v 5.79688 h 6.04883 l 1.05859,-1.05859 -1.05859,-4.73829 h 3.04883 l 1.05664,-1.05859 -1.05664,-3.95117 h -3.04883 V 88.458984 l -5.56445,-1.058593 z m 0.48828,0.865235 h 5.26953 V 106.1582 h 3.04688 v 3.27735 h -3.04688 v 5.79687 h -4.31836 v -5.79687 h -10.66601 v -4.07227 z m 0.95117,3.160156 -7.92968,13.673825 h 7.92968 z m -0.86523,3.21875 v 9.589845 h -5.56055 z"
               id="path66-3-3"
               sodipodi:nodetypes="ccccccccccccccccccccccccccccccccccc" />
          </g>
          <g
             id="text33-3-3-89-3-1">
            <path
               style="-inkscape-font-specification:'Helvetica Bold';fill:#ffffff"
               d="m -308.46562,108.81103 h -3.04723 v 5.79717 h -5.184 v -5.79717 h -10.6653 v -4.62658 l 9.90349,-16.350987 h 5.94581 v 16.834077 h 3.04723 z m -8.23123,-4.14349 V 93.036049 l -6.74478,11.631491 z"
               id="path53-3-1" />
            <path
               style="color:#000000;font-style:normal;font-variant:normal;font-weight:normal;font-stretch:normal;font-size:medium;line-height:normal;font-family:sans-serif;-inkscape-font-specification:'Helvetica Bold';font-variant-ligatures:normal;font-variant-position:normal;font-variant-caps:normal;font-variant-numeric:normal;font-variant-alternates:normal;font-variant-east-asian:normal;font-feature-settings:normal;font-variation-settings:normal;text-indent:0;text-align:start;text-decoration-line:none;text-decoration-style:solid;text-decoration-color:#000000;letter-spacing:normal;word-spacing:normal;text-transform:none;writing-mode:lr-tb;direction:ltr;text-orientation:mixed;dominant-baseline:auto;baseline-shift:baseline;text-anchor:start;white-space:normal;shape-padding:0;shape-margin:0;inline-size:0;clip-rule:nonzero;display:inline;overflow:visible;visibility:visible;isolation:auto;mix-blend-mode:normal;color-interpolation:sRGB;color-interpolation-filters:linearRGB;solid-color:#000000;solid-opacity:1;vector-effect:none;fill:#1a1a1a;fill-opacity:1;fill-rule:nonzero;stroke:none;stroke-linecap:butt;stroke-linejoin:miter;stroke-miterlimit:4;stroke-dasharray:none;stroke-dashoffset:0;stroke-opacity:1;-inkscape-stroke:none;color-rendering:auto;image-rendering:auto;shape-rendering:auto;text-rendering:auto;enable-background:accumulate;stop-color:#000000;stop-opacity:1"
               d="m -317.70312,87.400391 -10.0918,16.664059 v 5.17969 h 10.66406 v 5.79688 h 6.05078 v -5.79688 h 3.04688 v -5.00976 h -3.04688 V 87.400391 Z m 0.48828,0.865234 h 5.26953 v 16.835935 h 3.04687 v 3.27539 h -3.04687 v 5.79883 h -4.31836 v -5.79883 h -10.66602 v -4.07226 z m 0.95117,3.160156 -7.92969,13.675779 h 7.92969 z m -0.86719,3.222656 v 9.585943 h -5.55859 z"
               id="path54-8-9"
               sodipodi:nodetypes="cccccccccccccccccccccccccccccccc" />
          </g>
        </g>
      </g>
    </g>
  </g>
</svg>
