<?xml version="1.0" encoding="UTF-8" standalone="no"?>
<!-- Created with Inkscape (http://www.inkscape.org/) -->

<svg
   width="56mm"
   height="86mm"
   viewBox="0 0 56 86"
   version="1.1"
   id="svg1"
   inkscape:version="1.4 (e7c3feb100, 2024-10-09)"
   sodipodi:docname="seven.svg"
   xmlns:inkscape="http://www.inkscape.org/namespaces/inkscape"
   xmlns:sodipodi="http://sodipodi.sourceforge.net/DTD/sodipodi-0.dtd"
   xmlns="http://www.w3.org/2000/svg"
   xmlns:svg="http://www.w3.org/2000/svg">
  <sodipodi:namedview
     id="namedview1"
     pagecolor="#ffffff"
     bordercolor="#000000"
     borderopacity="0.25"
     inkscape:showpageshadow="2"
     inkscape:pageopacity="0.0"
     inkscape:pagecheckerboard="0"
     inkscape:deskcolor="#d1d1d1"
     inkscape:document-units="mm"
     inkscape:zoom="1.0595392"
     inkscape:cx="32.089422"
     inkscape:cy="119.39152"
     inkscape:window-width="1261"
     inkscape:window-height="1016"
     inkscape:window-x="0"
     inkscape:window-y="0"
     inkscape:window-maximized="1"
     inkscape:current-layer="g34" />
  <defs
     id="defs1" />
  <g
     inkscape:label="Layer 1"
     inkscape:groupmode="layer"
     id="layer1"
     transform="translate(-133.61458,-101.07083)">
    <g
       id="g34"
       transform="translate(541.07274,41.669305)">
      <g
         id="g36-3-5-0"
         transform="translate(-61.572158)">
        <rect
           style="fill:#f9f9f9;stroke-width:0.267626"
           id="rect1-0-9-9-6"
           width="56"
           height="86"
           x="-345.88602"
           y="59.401527"
           rx="3" />
        <rect
           class="suit-bg"
           style="fill-opacity:1;stroke-width:0.239968"
           id="rect1-5-6-4-8-2"
           width="49.007965"
           height="79.007973"
           x="-342.38998"
           y="62.897545"
           rx="2.6254268" />
        <path
           id="rect1-5-3-8-8-4-9"
           style="fill:none;fill-opacity:1;stroke:#f9f9f9;stroke-width:2.24;stroke-dasharray:none;stroke-opacity:1;paint-order:normal"
           d="m -304.90093,68.995259 a 19.089518,36.916687 30.07906 0 0 -34.11781,33.347321 19.089518,36.916687 30.07906 0 0 -3.37137,12.90205 v 8.39897 a 19.089518,36.916687 30.07906 0 0 11.51868,12.04578 19.089518,36.916687 30.07906 0 0 34.11833,-33.3468 19.089518,36.916687 30.07906 0 0 3.37085,-12.895856 v -8.407756 a 19.089518,36.916687 30.07906 0 0 -11.51868,-12.043709 z" />
        <g
           id="g33-1-8-9"
           transform="translate(0.52915727,0.4935967)">
          <g
             id="text33-1-2-1-0">
            <path
               style="-inkscape-font-specification:'Helvetica Bold';fill:#1a1a1a"
               d="m -309.35671,93.221085 q -1.18916,1.170582 -3.30736,4.180649 -2.11819,2.991486 -3.54891,6.187366 -1.13342,2.50838 -2.04387,6.13161 -0.91045,3.62323 -0.91045,5.94582 h -5.49988 q 0.24155,-7.24646 4.75665,-15.06892 2.91717,-4.849555 4.88672,-6.763363 h -13.43382 l 0.0743,-4.75665 h 19.0266 z"
               id="path71" />
            <path
               style="-inkscape-font-specification:'Helvetica Bold';fill:#1a1a1a"
               d="m -328.81055,88.644531 -0.0879,5.623047 h 13.03321 c -1.27119,1.367747 -2.67436,3.212059 -4.41602,6.107422 l -0.002,0.002 -0.002,0.004 c -3.03734,5.26223 -4.6506,10.35589 -4.81445,15.27148 l -0.0156,0.44727 h 6.38086 l 1.05858,-1.05869 c 0.19059,-0.19061 -1.04889,0.0709 -1.02946,-0.22869 0.0881,-1.35845 0.37639,-3.02441 0.86931,-4.98606 0.60237,-2.3972 1.27627,-4.41799 2.01758,-6.05859 v -0.002 c 0.94184,-2.10383 2.11115,-4.140795 3.50781,-6.113286 v -0.002 c 1.40539,-1.997125 2.50569,-3.380717 3.25782,-4.121094 l 0.1289,-0.126953 v -4.757813 l -18.82804,-1.058637 z m 0.85352,0.865235 h 18.16797 v 3.564453 c -0.8216,0.831963 -1.86397,2.139039 -3.22852,4.078125 -1.42758,2.016157 -2.62405,4.102426 -3.58984,6.259766 -0.76965,1.70363 -1.45893,3.77004 -2.07031,6.20312 -0.56842,2.26207 -0.81411,4.07327 -0.85547,5.61719 h -4.6543 c 0.2378,-4.60879 1.76109,-9.40792 4.64844,-14.41211 l 0.004,-0.004 c 3.2e-4,-5.6e-4 -3.2e-4,-0.001 0,-0.002 1.93337,-3.213275 3.55503,-5.448037 4.8125,-6.669919 l 0.76563,-0.74414 h -14.06055 z"
               id="path72"
               sodipodi:nodetypes="cccccccccsssccccccccccccccsccccccccc" />
          </g>
          <g
             id="text33-3-3-3">
            <path
               style="-inkscape-font-specification:'Helvetica Bold';fill:#ffffff"
               d="m -308.29839,92.162758 q -1.18916,1.170582 -3.30736,4.180649 -2.1182,2.991487 -3.54891,6.187363 -1.13342,2.50839 -2.04387,6.13162 -0.91045,3.62323 -0.91045,5.94581 h -5.49988 q 0.24155,-7.24646 4.75665,-15.068918 2.91717,-4.849554 4.88672,-6.763362 h -13.43382 l 0.0743,-4.75665 h 19.0266 z"
               id="path59" />
            <path
               style="-inkscape-font-specification:'Helvetica Bold';fill:#1a1a1a"
               d="m -327.75195,87.585937 -0.0879,5.623047 h 13.0332 c -1.27119,1.367747 -2.67436,3.21206 -4.41602,6.107422 l -0.002,0.0039 -0.002,0.002 c -3.03734,5.262224 -4.6506,10.355884 -4.81446,15.271484 l -0.0156,0.44727 h 6.38086 v -0.4336 c 0,-1.49179 0.29485,-3.44557 0.89648,-5.83984 0.60237,-2.3972 1.27822,-4.41799 2.01953,-6.0586 v -0.002 c 0.94183,-2.10383 2.11114,-4.140789 3.50782,-6.11328 v -0.002 c 1.40538,-1.997125 2.50568,-3.380717 3.25781,-4.121094 l 0.12891,-0.126953 V 87.58588 Z m 0.85351,0.867188 h 18.16602 v 3.566406 c -0.82134,0.832164 -1.86508,2.136709 -3.22852,4.074219 h 0.002 c -1.4276,2.016158 -2.62602,4.10242 -3.5918,6.25977 -0.76956,1.70354 -1.45703,3.77026 -2.06836,6.20312 -0.56861,2.26285 -0.81623,4.07494 -0.85742,5.61914 h -4.65235 c 0.23747,-4.60937 1.76069,-9.40919 4.64844,-14.414061 l 0.004,-0.0039 c 3.2e-4,-5.53e-4 -3.2e-4,-0.0014 0,-0.002 1.93337,-3.213277 3.55503,-5.448039 4.8125,-6.669922 l 0.76562,-0.742187 h -14.06054 z"
               id="path60" />
          </g>
        </g>
        <g
           id="g33-1-8-9-8"
           transform="matrix(0.51109332,0,0,0.51109332,-172.17551,21.307755)">
          <g
             id="text33-1-2-1-0-7">
            <path
               style="-inkscape-font-specification:'Helvetica Bold';fill:#1a1a1a"
               d="m -309.35671,93.221085 q -1.18916,1.170582 -3.30736,4.180649 -2.11819,2.991486 -3.54891,6.187366 -1.13342,2.50838 -2.04387,6.13161 -0.91045,3.62323 -0.91045,5.94582 h -5.49988 q 0.24155,-7.24646 4.75665,-15.06892 2.91717,-4.849555 4.88672,-6.763363 h -13.43382 l 0.0743,-4.75665 h 19.0266 z"
               id="path71-9" />
            <path
               style="-inkscape-font-specification:'Helvetica Bold';fill:#1a1a1a"
               d="m -328.81055,88.644531 -0.0879,5.623047 h 13.03321 c -1.27119,1.367747 -2.67436,3.212059 -4.41602,6.107422 l -0.002,0.002 -0.002,0.004 c -3.03734,5.26223 -4.6506,10.35589 -4.81445,15.27148 l -0.0156,0.44727 h 6.38086 l 1.05858,-1.05869 c 0.19059,-0.19061 -1.04889,0.0709 -1.02946,-0.22869 0.0881,-1.35845 0.37639,-3.02441 0.86931,-4.98606 0.60237,-2.3972 1.27627,-4.41799 2.01758,-6.05859 v -0.002 c 0.94184,-2.10383 2.11115,-4.140795 3.50781,-6.113286 v -0.002 c 1.40539,-1.997125 2.50569,-3.380717 3.25782,-4.121094 l 0.1289,-0.126953 v -4.757813 l -18.82804,-1.058637 z m 0.85352,0.865235 h 18.16797 v 3.564453 c -0.8216,0.831963 -1.86397,2.139039 -3.22852,4.078125 -1.42758,2.016157 -2.62405,4.102426 -3.58984,6.259766 -0.76965,1.70363 -1.45893,3.77004 -2.07031,6.20312 -0.56842,2.26207 -0.81411,4.07327 -0.85547,5.61719 h -4.6543 c 0.2378,-4.60879 1.76109,-9.40792 4.64844,-14.41211 l 0.004,-0.004 c 3.2e-4,-5.6e-4 -3.2e-4,-0.001 0,-0.002 1.93337,-3.213275 3.55503,-5.448037 4.8125,-6.669919 l 0.76563,-0.74414 h -14.06055 z"
               id="path72-6"
               sodipodi:nodetypes="cccccccccsssccccccccccccccsccccccccc" />
          </g>
          <g
             id="text33-3-3-3-0">
            <path
               style="-inkscape-font-specification:'Helvetica Bold';fill:#ffffff"
               d="m -308.29839,92.162758 q -1.18916,1.170582 -3.30736,4.180649 -2.1182,2.991487 -3.54891,6.187363 -1.13342,2.50839 -2.04387,6.13162 -0.91045,3.62323 -0.91045,5.94581 h -5.49988 q 0.24155,-7.24646 4.75665,-15.068918 2.91717,-4.849554 4.88672,-6.763362 h -13.43382 l 0.0743,-4.75665 h 19.0266 z"
               id="path59-4" />
            <path
               style="-inkscape-font-specification:'Helvetica Bold';fill:#1a1a1a"
               d="m -327.75195,87.585937 -0.0879,5.623047 h 13.0332 c -1.27119,1.367747 -2.67436,3.21206 -4.41602,6.107422 l -0.002,0.0039 -0.002,0.002 c -3.03734,5.262224 -4.6506,10.355884 -4.81446,15.271484 l -0.0156,0.44727 h 6.38086 v -0.4336 c 0,-1.49179 0.29485,-3.44557 0.89648,-5.83984 0.60237,-2.3972 1.27822,-4.41799 2.01953,-6.0586 v -0.002 c 0.94183,-2.10383 2.11114,-4.140789 3.50782,-6.11328 v -0.002 c 1.40538,-1.997125 2.50568,-3.380717 3.25781,-4.121094 l 0.12891,-0.126953 V 87.58588 Z m 0.85351,0.867188 h 18.16602 v 3.566406 c -0.82134,0.832164 -1.86508,2.136709 -3.22852,4.074219 h 0.002 c -1.4276,2.016158 -2.62602,4.10242 -3.5918,6.25977 -0.76956,1.70354 -1.45703,3.77026 -2.06836,6.20312 -0.56861,2.26285 -0.81623,4.07494 -0.85742,5.61914 h -4.65235 c 0.23747,-4.60937 1.76069,-9.40919 4.64844,-14.414061 l 0.004,-0.0039 c 3.2e-4,-5.53e-4 -3.2e-4,-0.0014 0,-0.002 1.93337,-3.213277 3.55503,-5.448039 4.8125,-6.669922 l 0.76562,-0.742187 h -14.06054 z"
               id="path60-1" />
          </g>
        </g>
        <g
           id="g33-1-8-9-8-7"
           transform="matrix(-0.51109332,0,0,-0.51109332,-463.59651,183.49531)">
          <g
             id="text33-1-2-1-0-7-0">
            <path
               style="-inkscape-font-specification:'Helvetica Bold';fill:#1a1a1a"
               d="m -309.35671,93.221085 q -1.18916,1.170582 -3.30736,4.180649 -2.11819,2.991486 -3.54891,6.187366 -1.13342,2.50838 -2.04387,6.13161 -0.91045,3.62323 -0.91045,5.94582 h -5.49988 q 0.24155,-7.24646 4.75665,-15.06892 2.91717,-4.849555 4.88672,-6.763363 h -13.43382 l 0.0743,-4.75665 h 19.0266 z"
               id="path71-9-1" />
            <path
               style="-inkscape-font-specification:'Helvetica Bold';fill:#1a1a1a"
               d="m -328.81055,88.644531 -0.0879,5.623047 h 13.03321 c -1.27119,1.367747 -2.67436,3.212059 -4.41602,6.107422 l -0.002,0.002 -0.002,0.004 c -3.03734,5.26223 -4.6506,10.35589 -4.81445,15.27148 l -0.0156,0.44727 h 6.38086 l 1.05858,-1.05869 c 0.19059,-0.19061 -1.04889,0.0709 -1.02946,-0.22869 0.0881,-1.35845 0.37639,-3.02441 0.86931,-4.98606 0.60237,-2.3972 1.27627,-4.41799 2.01758,-6.05859 v -0.002 c 0.94184,-2.10383 2.11115,-4.140795 3.50781,-6.113286 v -0.002 c 1.40539,-1.997125 2.50569,-3.380717 3.25782,-4.121094 l 0.1289,-0.126953 v -4.757813 l -18.82804,-1.058637 z m 0.85352,0.865235 h 18.16797 v 3.564453 c -0.8216,0.831963 -1.86397,2.139039 -3.22852,4.078125 -1.42758,2.016157 -2.62405,4.102426 -3.58984,6.259766 -0.76965,1.70363 -1.45893,3.77004 -2.07031,6.20312 -0.56842,2.26207 -0.81411,4.07327 -0.85547,5.61719 h -4.6543 c 0.2378,-4.60879 1.76109,-9.40792 4.64844,-14.41211 l 0.004,-0.004 c 3.2e-4,-5.6e-4 -3.2e-4,-0.001 0,-0.002 1.93337,-3.213275 3.55503,-5.448037 4.8125,-6.669919 l 0.76563,-0.74414 h -14.06055 z"
               id="path72-6-0"
               sodipodi:nodetypes="cccccccccsssccccccccccccccsccccccccc" />
          </g>
          <g
             id="text33-3-3-3-0-1">
            <path
               style="-inkscape-font-specification:'Helvetica Bold';fill:#ffffff"
               d="m -308.29839,92.162758 q -1.18916,1.170582 -3.30736,4.180649 -2.1182,2.991487 -3.54891,6.187363 -1.13342,2.50839 -2.04387,6.13162 -0.91045,3.62323 -0.91045,5.94581 h -5.49988 q 0.24155,-7.24646 4.75665,-15.068918 2.91717,-4.849554 4.88672,-6.763362 h -13.43382 l 0.0743,-4.75665 h 19.0266 z"
               id="path59-4-3" />
            <path
               style="-inkscape-font-specification:'Helvetica Bold';fill:#1a1a1a"
               d="m -327.75195,87.585937 -0.0879,5.623047 h 13.0332 c -1.27119,1.367747 -2.67436,3.21206 -4.41602,6.107422 l -0.002,0.0039 -0.002,0.002 c -3.03734,5.262224 -4.6506,10.355884 -4.81446,15.271484 l -0.0156,0.44727 h 6.38086 v -0.4336 c 0,-1.49179 0.29485,-3.44557 0.89648,-5.83984 0.60237,-2.3972 1.27822,-4.41799 2.01953,-6.0586 v -0.002 c 0.94183,-2.10383 2.11114,-4.140789 3.50782,-6.11328 v -0.002 c 1.40538,-1.997125 2.50568,-3.380717 3.25781,-4.121094 l 0.12891,-0.126953 V 87.58588 Z m 0.85351,0.867188 h 18.16602 v 3.566406 c -0.82134,0.832164 -1.86508,2.136709 -3.22852,4.074219 h 0.002 c -1.4276,2.016158 -2.62602,4.10242 -3.5918,6.25977 -0.76956,1.70354 -1.45703,3.77026 -2.06836,6.20312 -0.56861,2.26285 -0.81623,4.07494 -0.85742,5.61914 h -4.65235 c 0.23747,-4.60937 1.76069,-9.40919 4.64844,-14.414061 l 0.004,-0.0039 c 3.2e-4,-5.53e-4 -3.2e-4,-0.0014 0,-0.002 1.93337,-3.213277 3.55503,-5.448039 4.8125,-6.669922 l 0.76562,-0.742187 h -14.06054 z"
               id="path60-1-7" />
          </g>
        </g>
        <g
           id="g33-0-0-4-1"
           transform="matrix(0.49032372,0,0,0.49032372,-179.11968,22.332859)" />
        <g
           id="g33-0-7-9-6-3"
           transform="matrix(-0.49032372,0,0,-0.49032372,-456.65231,182.47019)" />
      </g>
    </g>
  </g>
</svg>
