<?xml version="1.0" encoding="UTF-8" standalone="no"?>
<!-- Created with Inkscape (http://www.inkscape.org/) -->

<svg
   width="56mm"
   height="86mm"
   viewBox="0 0 56 86"
   version="1.1"
   id="svg1"
   inkscape:version="1.4 (e7c3feb100, 2024-10-09)"
   sodipodi:docname="three.svg"
   xmlns:inkscape="http://www.inkscape.org/namespaces/inkscape"
   xmlns:sodipodi="http://sodipodi.sourceforge.net/DTD/sodipodi-0.dtd"
   xmlns="http://www.w3.org/2000/svg"
   xmlns:svg="http://www.w3.org/2000/svg">
  <sodipodi:namedview
     id="namedview1"
     pagecolor="#ffffff"
     bordercolor="#000000"
     borderopacity="0.25"
     inkscape:showpageshadow="2"
     inkscape:pageopacity="0.0"
     inkscape:pagecheckerboard="0"
     inkscape:deskcolor="#d1d1d1"
     inkscape:document-units="mm"
     inkscape:zoom="1.0595392"
     inkscape:cx="32.089422"
     inkscape:cy="119.39152"
     inkscape:window-width="1261"
     inkscape:window-height="1016"
     inkscape:window-x="0"
     inkscape:window-y="0"
     inkscape:window-maximized="1"
     inkscape:current-layer="g34" />
  <defs
     id="defs1" />
  <g
     inkscape:label="Layer 1"
     inkscape:groupmode="layer"
     id="layer1"
     transform="translate(-133.61458,-101.07083)">
    <g
       id="g34"
       transform="translate(541.07274,41.669305)">
      <g
         id="g36-3-5-1"
         transform="translate(-61.572143)">
        <rect
           style="fill:#f9f9f9;stroke-width:0.267626"
           id="rect1-0-9-9-7"
           width="56"
           height="86"
           x="-345.88602"
           y="59.401527"
           rx="3" />
        <rect
           class="suit-bg"
           style="fill-opacity:1;stroke-width:0.239968"
           id="rect1-5-6-4-8-8"
           width="49.007965"
           height="79.007973"
           x="-342.38998"
           y="62.897545"
           rx="2.6254268" />
        <path
           id="rect1-5-3-8-8-4-5"
           style="fill:none;fill-opacity:1;stroke:#f9f9f9;stroke-width:2.24;stroke-dasharray:none;stroke-opacity:1;paint-order:normal"
           d="m -304.90093,68.995259 a 19.089518,36.916687 30.07906 0 0 -34.11781,33.347321 19.089518,36.916687 30.07906 0 0 -3.37137,12.90205 v 8.39897 a 19.089518,36.916687 30.07906 0 0 11.51868,12.04578 19.089518,36.916687 30.07906 0 0 34.11833,-33.3468 19.089518,36.916687 30.07906 0 0 3.37085,-12.895856 v -8.407756 a 19.089518,36.916687 30.07906 0 0 -11.51868,-12.043709 z" />
        <g
           id="g33-1-8-7"
           transform="translate(0.52915727,0.4935967)">
          <g
             id="text33-1-2-1-4">
            <path
               style="-inkscape-font-specification:'Helvetica Bold';fill:#1a1a1a"
               d="m -323.21789,107.39813 q 0,1.61652 0.52026,2.67562 0.9662,1.95097 3.51175,1.95097 1.56077,0 2.71277,-1.0591 1.17059,-1.07768 1.17059,-3.08439 0,-2.65704 -2.15536,-3.54891 -1.22632,-0.50168 -3.86478,-0.50168 v -3.79045 q 2.58271,-0.0372 3.60465,-0.50168 1.76516,-0.780387 1.76516,-3.158712 0,-1.542195 -0.91045,-2.50839 -0.89187,-0.966195 -2.52697,-0.966195 -1.87665,0 -2.76852,1.189163 -0.87329,1.189162 -0.83613,3.177293 h -4.94246 q 0.0743,-2.006711 0.68749,-3.809036 0.65032,-1.579356 2.04387,-2.917164 1.04052,-0.947614 2.47123,-1.449292 1.43071,-0.501678 3.51175,-0.501678 3.86477,0 6.22452,2.006712 2.37832,1.988131 2.37832,5.351231 0,2.378325 -1.41213,4.013424 -0.89187,1.021934 -1.85806,1.393554 0.72464,0 2.08103,1.2449 2.02529,1.87665 2.02529,5.12826 0,3.41885 -2.37832,6.02014 -2.35975,2.58271 -7.00491,2.58271 -5.72285,0 -7.95253,-3.73471 -1.17058,-1.98813 -1.30064,-5.20259 z"
               id="path49" />
            <path
               style="-inkscape-font-specification:'Helvetica Bold';fill:#1a1a1a"
               d="m -319.22266,88.162109 c -1.42216,0 -2.64056,0.16924 -3.65625,0.525391 -1.00322,0.351781 -1.88052,0.864444 -2.61914,1.537109 l -0.004,0.0039 -0.004,0.0039 c -0.96618,0.927532 -1.6859,1.950643 -2.14453,3.064453 l -0.006,0.01367 -0.004,0.01172 c -0.42286,1.242905 -0.65995,2.55655 -0.71093,3.933593 l -0.0156,0.449219 h 5.83399 l 1.05663,-1.058593 c -0.0235,-1.25923 -0.82797,-1.59555 -0.31663,-2.292969 l 0.002,-0.002 c 0.50708,-0.674615 1.2616,-1.013671 2.41993,-1.013671 1.00475,0 1.70388,0.280933 2.20898,0.828125 h 0.002 l 0.002,0.002 c 0.52808,0.560418 0.79101,1.268043 0.79101,2.210937 0,1.478395 -0.47791,2.309212 -1.50586,2.763672 h -0.002 l -0.002,0.002 c -0.56013,0.254583 -1.10422,-0.614194 -2.80089,-0.589756 l -1.05849,1.058547 v 4.650394 h 0.43359 c 1.73063,0 2.98225,0.17579 3.69922,0.46875 1.29649,0.53648 1.88672,1.4942 1.88672,3.14843 0,1.25359 -0.34746,2.1379 -1.02929,2.76563 -0.69626,0.64011 -1.47739,0.94531 -2.41993,0.94531 -1.58572,0 -2.54597,-0.54488 -3.12304,-1.70898 v -0.002 c -0.30795,-0.62762 -0.47657,-1.452 -0.47657,-2.48243 v -0.43359 l -5.02744,-1.05855 -1.05849,1.05855 0.0176,0.45117 c 0.0887,2.19182 0.53272,3.99698 1.36133,5.40429 v 0.002 c 1.57006,2.62985 4.41477,3.94726 8.32422,3.94726 3.17705,0 5.65754,-0.89832 7.32617,-2.72461 1.64931,-1.80393 2.49024,-3.93283 2.49024,-6.3125 0,-2.25767 -0.72239,-4.10944 -2.16406,-5.44531 v -0.002 c -0.55802,-0.51215 -1.03152,-0.84303 -1.48243,-1.07031 0.43926,-0.28399 0.89251,-0.50599 1.29297,-0.96485 v -0.002 c 1.00932,-1.168696 1.51758,-2.623655 1.51758,-4.29493 0,-2.343143 -0.85495,-4.279287 -2.53125,-5.681641 -1.66206,-1.413405 -3.85243,-2.109375 -6.50391,-2.109375 z m 0,0.865235 c 2.50155,0 4.45909,0.642086 5.94336,1.904297 h 0.002 l 0.002,0.002 c 1.49334,1.248342 2.22266,2.879566 2.22266,5.019531 0,1.499176 -0.43389,2.71733 -1.30664,3.728516 -0.56074,0.642512 -1.12391,1.057422 -1.68555,1.273442 l 0.1543,0.83789 c 0.23505,0 0.91311,0.32691 1.78906,1.13086 1.25734,1.16613 1.88476,2.73191 1.88476,4.80859 0,2.1788 -0.74384,4.06407 -2.26562,5.72852 -1.47771,1.61732 -3.66905,2.4414 -6.68555,2.4414 -3.71972,0 -6.17504,-1.17334 -7.57812,-3.52148 l -0.002,-0.002 c -0.67286,-1.14373 -1.052,-2.68492 -1.17968,-4.54688 h 4.36328 c 0.0466,0.91132 0.1515,1.7679 0.47851,2.4336 0.71127,1.4362 2.0927,2.1914 3.90039,2.1914 1.13849,0 2.16612,-0.39985 3.00586,-1.17187 0.87895,-0.80919 1.31055,-1.98227 1.31055,-3.4043 0,-1.88848 -0.8465,-3.29654 -2.42383,-3.94922 -0.8195,-0.33525 -2.08967,-0.44556 -3.5957,-0.47656 v -3.04297 c 1.44523,-0.0485 2.63607,-0.15546 3.34765,-0.478519 h 0.002 c 1.32293,-0.586876 2.01953,-1.863734 2.01953,-3.554688 0,-1.111338 -0.34204,-2.073405 -1.02539,-2.800781 l -0.002,-0.002 c -0.68399,-0.739712 -1.66944,-1.103516 -2.84375,-1.103516 -1.34259,0 -2.43317,0.451895 -3.11524,1.361328 v 0.002 l -0.002,0.002 c -0.57668,0.785268 -0.83013,1.817384 -0.87305,3 h -4.04297 c 0.079,-1.119673 0.23833,-2.206256 0.58203,-3.220704 0.40783,-0.985756 1.04593,-1.902364 1.93164,-2.753906 0.64809,-0.589417 1.41544,-1.040812 2.31836,-1.357422 0.89193,-0.312753 2.01659,-0.478515 3.36914,-0.478515 z"
               id="path50"
               sodipodi:nodetypes="csccsccsccccccscccsccccccscscsccsccccccscscccccscccscccsccccscscccccscscccccsccscccccccsss" />
          </g>
          <g
             id="text33-3-3-8">
            <path
               style="-inkscape-font-specification:'Helvetica Bold';fill:#ffffff"
               d="m -322.15957,106.3398 q 0,1.61652 0.52026,2.67562 0.9662,1.95097 3.51175,1.95097 1.56077,0 2.71277,-1.0591 1.17059,-1.07768 1.17059,-3.08439 0,-2.65703 -2.15536,-3.5489 -1.22633,-0.50168 -3.86478,-0.50168 v -3.790458 q 2.58271,-0.03716 3.60465,-0.501678 1.76516,-0.780388 1.76516,-3.158713 0,-1.542195 -0.91045,-2.50839 -0.89187,-0.966194 -2.52697,-0.966194 -1.87665,0 -2.76852,1.189162 -0.87329,1.189163 -0.83613,3.177294 h -4.94246 q 0.0743,-2.006712 0.68749,-3.809036 0.65032,-1.579357 2.04387,-2.917165 1.04052,-0.947613 2.47123,-1.449291 1.43071,-0.501678 3.51175,-0.501678 3.86477,0 6.22452,2.006711 2.37832,1.988131 2.37832,5.351232 0,2.378325 -1.41213,4.013423 -0.89187,1.021937 -1.85806,1.393551 0.72464,0 2.08103,1.2449 2.02529,1.87665 2.02529,5.12827 0,3.41884 -2.37832,6.02013 -2.35975,2.58271 -7.00491,2.58271 -5.72285,0 -7.95253,-3.73471 -1.17058,-1.98813 -1.30064,-5.20259 z"
               id="path51" />
            <path
               style="-inkscape-font-specification:'Helvetica Bold';fill:#1a1a1a"
               d="m -318.16406,87.103516 c -1.42217,0 -2.64056,0.16924 -3.65625,0.52539 -1.00323,0.351781 -1.88053,0.864445 -2.61914,1.53711 l -0.004,0.0039 -0.004,0.0039 c -0.96617,0.927532 -1.6859,1.952595 -2.14453,3.066406 l -0.006,0.01172 -0.004,0.01367 c -0.42287,1.242904 -0.65995,2.554597 -0.71094,3.931641 l -0.0156,0.449218 h 5.83203 l -0.008,-0.441406 c -0.0235,-1.258415 0.23932,-2.210902 0.75,-2.908203 0.50709,-0.676116 1.26227,-1.017578 2.42188,-1.017578 1.00475,0 1.70388,0.280934 2.20898,0.828125 l 0.002,0.002 c 0.52808,0.560418 0.79297,1.269996 0.79297,2.212891 0,1.478394 -0.47792,2.307258 -1.50586,2.761718 h -0.002 l -0.004,0.002 c -0.56012,0.2546 -1.73498,0.438479 -3.43164,0.462891 l -0.42579,0.0059 v 4.650391 h 0.4336 c 1.73151,0 2.98242,0.17747 3.69922,0.4707 v -0.002 c 1.29649,0.53647 1.88672,1.4942 1.88672,3.14844 0,1.25358 -0.34942,2.1379 -1.03125,2.76562 -0.69593,0.63929 -1.47602,0.94531 -2.41797,0.94531 -1.58513,0 -2.5459,-0.54579 -3.12305,-1.70898 -0.30839,-0.62779 -0.47656,-1.45316 -0.47656,-2.48438 v -0.43359 h -6.08594 l 0.0176,0.45117 c 0.0887,2.19182 0.53076,3.99697 1.35937,5.4043 l 0.002,0.002 c 1.57006,2.62985 4.41476,3.94727 8.32422,3.94727 3.17704,0 5.65558,-0.89832 7.32421,-2.72461 1.64931,-1.80394 2.49219,-3.93284 2.49219,-6.3125 0,-2.25768 -0.72239,-4.10945 -2.16406,-5.44531 l -0.002,-0.002 c -0.55802,-0.51215 -1.02957,-0.84303 -1.48047,-1.07031 0.43909,-0.283941 0.89069,-0.506138 1.29101,-0.964842 h 0.002 c 1.00932,-1.168687 1.51757,-2.6256 1.51757,-4.296875 0,-2.343143 -0.85495,-4.279287 -2.53125,-5.68164 -1.66206,-1.413405 -3.85242,-2.109375 -6.5039,-2.109375 z m 0,0.865234 c 2.50154,0 4.45909,0.642087 5.94336,1.904297 l 0.002,0.002 c 1.49334,1.248342 2.22461,2.879566 2.22461,5.019531 0,1.499826 -0.43508,2.719026 -1.30859,3.730469 -0.56002,0.64109 -1.12464,1.055747 -1.68555,1.271484 l 0.15625,0.837899 c 0.23506,0 0.91311,0.3269 1.78906,1.13085 1.25735,1.16614 1.88477,2.73191 1.88477,4.8086 0,2.17879 -0.74385,4.06406 -2.26563,5.72851 -1.4777,1.61733 -3.66905,2.44141 -6.68554,2.44141 -3.71973,0 -6.17504,-1.17335 -7.57813,-3.52148 l -0.002,-0.002 c -0.67286,-1.14373 -1.05201,-2.68491 -1.17969,-4.54687 h 4.36328 c 0.0466,0.91132 0.15151,1.76789 0.47852,2.43359 0.71127,1.43621 2.0927,2.19336 3.90039,2.19336 1.13848,0 2.16611,-0.4018 3.00586,-1.17383 0.87895,-0.80918 1.31054,-1.98227 1.31054,-3.40429 0,-1.88848 -0.8465,-3.29654 -2.42382,-3.94922 h -0.002 c -0.8199,-0.33542 -2.08861,-0.44568 -3.5957,-0.47657 v -3.042967 c 1.44651,-0.04836 2.63761,-0.155248 3.34961,-0.478516 h 0.002 c 1.32293,-0.586877 2.01953,-1.86178 2.01953,-3.552734 0,-1.111339 -0.34204,-2.075359 -1.02539,-2.802735 l -0.002,-0.002 c -0.68399,-0.73971 -1.66944,-1.103515 -2.84375,-1.103516 -1.34259,0 -2.43316,0.451896 -3.11524,1.361329 l -0.002,0.002 v 0.002 c -0.57668,0.785269 -0.83013,1.817385 -0.87305,3 h -4.04296 c 0.079,-1.119673 0.23832,-2.206256 0.58203,-3.220703 0.40783,-0.985757 1.04593,-1.902365 1.93164,-2.753907 0.64808,-0.589416 1.41543,-1.040812 2.31836,-1.357421 0.89192,-0.312754 2.01658,-0.478516 3.36914,-0.478516 z"
               id="path52"
               sodipodi:nodetypes="csccsccccccccsccsccccccsccscscscccccscscccccscccsccsccccscscccccscsccccccsccscccccccsss" />
          </g>
        </g>
        <g
           id="g33-1-8-7-1"
           transform="matrix(0.4911334,0,0,0.4911334,-178.75344,22.766964)">
          <g
             id="text33-1-2-1-4-2">
            <path
               style="-inkscape-font-specification:'Helvetica Bold';fill:#1a1a1a"
               d="m -323.21789,107.39813 q 0,1.61652 0.52026,2.67562 0.9662,1.95097 3.51175,1.95097 1.56077,0 2.71277,-1.0591 1.17059,-1.07768 1.17059,-3.08439 0,-2.65704 -2.15536,-3.54891 -1.22632,-0.50168 -3.86478,-0.50168 v -3.79045 q 2.58271,-0.0372 3.60465,-0.50168 1.76516,-0.780387 1.76516,-3.158712 0,-1.542195 -0.91045,-2.50839 -0.89187,-0.966195 -2.52697,-0.966195 -1.87665,0 -2.76852,1.189163 -0.87329,1.189162 -0.83613,3.177293 h -4.94246 q 0.0743,-2.006711 0.68749,-3.809036 0.65032,-1.579356 2.04387,-2.917164 1.04052,-0.947614 2.47123,-1.449292 1.43071,-0.501678 3.51175,-0.501678 3.86477,0 6.22452,2.006712 2.37832,1.988131 2.37832,5.351231 0,2.378325 -1.41213,4.013424 -0.89187,1.021934 -1.85806,1.393554 0.72464,0 2.08103,1.2449 2.02529,1.87665 2.02529,5.12826 0,3.41885 -2.37832,6.02014 -2.35975,2.58271 -7.00491,2.58271 -5.72285,0 -7.95253,-3.73471 -1.17058,-1.98813 -1.30064,-5.20259 z"
               id="path49-8" />
            <path
               style="-inkscape-font-specification:'Helvetica Bold';fill:#1a1a1a"
               d="m -319.22266,88.162109 c -1.42216,0 -2.64056,0.16924 -3.65625,0.525391 -1.00322,0.351781 -1.88052,0.864444 -2.61914,1.537109 l -0.004,0.0039 -0.004,0.0039 c -0.96618,0.927532 -1.6859,1.950643 -2.14453,3.064453 l -0.006,0.01367 -0.004,0.01172 c -0.42286,1.242905 -0.65995,2.55655 -0.71093,3.933593 l -0.0156,0.449219 h 5.83399 l 1.05663,-1.058593 c -0.0235,-1.25923 -0.82797,-1.59555 -0.31663,-2.292969 l 0.002,-0.002 c 0.50708,-0.674615 1.2616,-1.013671 2.41993,-1.013671 1.00475,0 1.70388,0.280933 2.20898,0.828125 h 0.002 l 0.002,0.002 c 0.52808,0.560418 0.79101,1.268043 0.79101,2.210937 0,1.478395 -0.47791,2.309212 -1.50586,2.763672 h -0.002 l -0.002,0.002 c -0.56013,0.254583 -1.10422,-0.614194 -2.80089,-0.589756 l -1.05849,1.058547 v 4.650394 h 0.43359 c 1.73063,0 2.98225,0.17579 3.69922,0.46875 1.29649,0.53648 1.88672,1.4942 1.88672,3.14843 0,1.25359 -0.34746,2.1379 -1.02929,2.76563 -0.69626,0.64011 -1.47739,0.94531 -2.41993,0.94531 -1.58572,0 -2.54597,-0.54488 -3.12304,-1.70898 v -0.002 c -0.30795,-0.62762 -0.47657,-1.452 -0.47657,-2.48243 v -0.43359 l -5.02744,-1.05855 -1.05849,1.05855 0.0176,0.45117 c 0.0887,2.19182 0.53272,3.99698 1.36133,5.40429 v 0.002 c 1.57006,2.62985 4.41477,3.94726 8.32422,3.94726 3.17705,0 5.65754,-0.89832 7.32617,-2.72461 1.64931,-1.80393 2.49024,-3.93283 2.49024,-6.3125 0,-2.25767 -0.72239,-4.10944 -2.16406,-5.44531 v -0.002 c -0.55802,-0.51215 -1.03152,-0.84303 -1.48243,-1.07031 0.43926,-0.28399 0.89251,-0.50599 1.29297,-0.96485 v -0.002 c 1.00932,-1.168696 1.51758,-2.623655 1.51758,-4.29493 0,-2.343143 -0.85495,-4.279287 -2.53125,-5.681641 -1.66206,-1.413405 -3.85243,-2.109375 -6.50391,-2.109375 z m 0,0.865235 c 2.50155,0 4.45909,0.642086 5.94336,1.904297 h 0.002 l 0.002,0.002 c 1.49334,1.248342 2.22266,2.879566 2.22266,5.019531 0,1.499176 -0.43389,2.71733 -1.30664,3.728516 -0.56074,0.642512 -1.12391,1.057422 -1.68555,1.273442 l 0.1543,0.83789 c 0.23505,0 0.91311,0.32691 1.78906,1.13086 1.25734,1.16613 1.88476,2.73191 1.88476,4.80859 0,2.1788 -0.74384,4.06407 -2.26562,5.72852 -1.47771,1.61732 -3.66905,2.4414 -6.68555,2.4414 -3.71972,0 -6.17504,-1.17334 -7.57812,-3.52148 l -0.002,-0.002 c -0.67286,-1.14373 -1.052,-2.68492 -1.17968,-4.54688 h 4.36328 c 0.0466,0.91132 0.1515,1.7679 0.47851,2.4336 0.71127,1.4362 2.0927,2.1914 3.90039,2.1914 1.13849,0 2.16612,-0.39985 3.00586,-1.17187 0.87895,-0.80919 1.31055,-1.98227 1.31055,-3.4043 0,-1.88848 -0.8465,-3.29654 -2.42383,-3.94922 -0.8195,-0.33525 -2.08967,-0.44556 -3.5957,-0.47656 v -3.04297 c 1.44523,-0.0485 2.63607,-0.15546 3.34765,-0.478519 h 0.002 c 1.32293,-0.586876 2.01953,-1.863734 2.01953,-3.554688 0,-1.111338 -0.34204,-2.073405 -1.02539,-2.800781 l -0.002,-0.002 c -0.68399,-0.739712 -1.66944,-1.103516 -2.84375,-1.103516 -1.34259,0 -2.43317,0.451895 -3.11524,1.361328 v 0.002 l -0.002,0.002 c -0.57668,0.785268 -0.83013,1.817384 -0.87305,3 h -4.04297 c 0.079,-1.119673 0.23833,-2.206256 0.58203,-3.220704 0.40783,-0.985756 1.04593,-1.902364 1.93164,-2.753906 0.64809,-0.589417 1.41544,-1.040812 2.31836,-1.357422 0.89193,-0.312753 2.01659,-0.478515 3.36914,-0.478515 z"
               id="path50-8"
               sodipodi:nodetypes="csccsccsccccccscccsccccccscscsccsccccccscscccccscccscccsccccscscccccscscccccsccscccccccsss" />
          </g>
          <g
             id="text33-3-3-8-9">
            <path
               style="-inkscape-font-specification:'Helvetica Bold';fill:#ffffff"
               d="m -322.15957,106.3398 q 0,1.61652 0.52026,2.67562 0.9662,1.95097 3.51175,1.95097 1.56077,0 2.71277,-1.0591 1.17059,-1.07768 1.17059,-3.08439 0,-2.65703 -2.15536,-3.5489 -1.22633,-0.50168 -3.86478,-0.50168 v -3.790458 q 2.58271,-0.03716 3.60465,-0.501678 1.76516,-0.780388 1.76516,-3.158713 0,-1.542195 -0.91045,-2.50839 -0.89187,-0.966194 -2.52697,-0.966194 -1.87665,0 -2.76852,1.189162 -0.87329,1.189163 -0.83613,3.177294 h -4.94246 q 0.0743,-2.006712 0.68749,-3.809036 0.65032,-1.579357 2.04387,-2.917165 1.04052,-0.947613 2.47123,-1.449291 1.43071,-0.501678 3.51175,-0.501678 3.86477,0 6.22452,2.006711 2.37832,1.988131 2.37832,5.351232 0,2.378325 -1.41213,4.013423 -0.89187,1.021937 -1.85806,1.393551 0.72464,0 2.08103,1.2449 2.02529,1.87665 2.02529,5.12827 0,3.41884 -2.37832,6.02013 -2.35975,2.58271 -7.00491,2.58271 -5.72285,0 -7.95253,-3.73471 -1.17058,-1.98813 -1.30064,-5.20259 z"
               id="path51-2" />
            <path
               style="-inkscape-font-specification:'Helvetica Bold';fill:#1a1a1a"
               d="m -318.16406,87.103516 c -1.42217,0 -2.64056,0.16924 -3.65625,0.52539 -1.00323,0.351781 -1.88053,0.864445 -2.61914,1.53711 l -0.004,0.0039 -0.004,0.0039 c -0.96617,0.927532 -1.6859,1.952595 -2.14453,3.066406 l -0.006,0.01172 -0.004,0.01367 c -0.42287,1.242904 -0.65995,2.554597 -0.71094,3.931641 l -0.0156,0.449218 h 5.83203 l -0.008,-0.441406 c -0.0235,-1.258415 0.23932,-2.210902 0.75,-2.908203 0.50709,-0.676116 1.26227,-1.017578 2.42188,-1.017578 1.00475,0 1.70388,0.280934 2.20898,0.828125 l 0.002,0.002 c 0.52808,0.560418 0.79297,1.269996 0.79297,2.212891 0,1.478394 -0.47792,2.307258 -1.50586,2.761718 h -0.002 l -0.004,0.002 c -0.56012,0.2546 -1.73498,0.438479 -3.43164,0.462891 l -0.42579,0.0059 v 4.650391 h 0.4336 c 1.73151,0 2.98242,0.17747 3.69922,0.4707 v -0.002 c 1.29649,0.53647 1.88672,1.4942 1.88672,3.14844 0,1.25358 -0.34942,2.1379 -1.03125,2.76562 -0.69593,0.63929 -1.47602,0.94531 -2.41797,0.94531 -1.58513,0 -2.5459,-0.54579 -3.12305,-1.70898 -0.30839,-0.62779 -0.47656,-1.45316 -0.47656,-2.48438 v -0.43359 h -6.08594 l 0.0176,0.45117 c 0.0887,2.19182 0.53076,3.99697 1.35937,5.4043 l 0.002,0.002 c 1.57006,2.62985 4.41476,3.94727 8.32422,3.94727 3.17704,0 5.65558,-0.89832 7.32421,-2.72461 1.64931,-1.80394 2.49219,-3.93284 2.49219,-6.3125 0,-2.25768 -0.72239,-4.10945 -2.16406,-5.44531 l -0.002,-0.002 c -0.55802,-0.51215 -1.02957,-0.84303 -1.48047,-1.07031 0.43909,-0.283941 0.89069,-0.506138 1.29101,-0.964842 h 0.002 c 1.00932,-1.168687 1.51757,-2.6256 1.51757,-4.296875 0,-2.343143 -0.85495,-4.279287 -2.53125,-5.68164 -1.66206,-1.413405 -3.85242,-2.109375 -6.5039,-2.109375 z m 0,0.865234 c 2.50154,0 4.45909,0.642087 5.94336,1.904297 l 0.002,0.002 c 1.49334,1.248342 2.22461,2.879566 2.22461,5.019531 0,1.499826 -0.43508,2.719026 -1.30859,3.730469 -0.56002,0.64109 -1.12464,1.055747 -1.68555,1.271484 l 0.15625,0.837899 c 0.23506,0 0.91311,0.3269 1.78906,1.13085 1.25735,1.16614 1.88477,2.73191 1.88477,4.8086 0,2.17879 -0.74385,4.06406 -2.26563,5.72851 -1.4777,1.61733 -3.66905,2.44141 -6.68554,2.44141 -3.71973,0 -6.17504,-1.17335 -7.57813,-3.52148 l -0.002,-0.002 c -0.67286,-1.14373 -1.05201,-2.68491 -1.17969,-4.54687 h 4.36328 c 0.0466,0.91132 0.15151,1.76789 0.47852,2.43359 0.71127,1.43621 2.0927,2.19336 3.90039,2.19336 1.13848,0 2.16611,-0.4018 3.00586,-1.17383 0.87895,-0.80918 1.31054,-1.98227 1.31054,-3.40429 0,-1.88848 -0.8465,-3.29654 -2.42382,-3.94922 h -0.002 c -0.8199,-0.33542 -2.08861,-0.44568 -3.5957,-0.47657 v -3.042967 c 1.44651,-0.04836 2.63761,-0.155248 3.34961,-0.478516 h 0.002 c 1.32293,-0.586877 2.01953,-1.86178 2.01953,-3.552734 0,-1.111339 -0.34204,-2.075359 -1.02539,-2.802735 l -0.002,-0.002 c -0.68399,-0.73971 -1.66944,-1.103515 -2.84375,-1.103516 -1.34259,0 -2.43316,0.451896 -3.11524,1.361329 l -0.002,0.002 v 0.002 c -0.57668,0.785269 -0.83013,1.817385 -0.87305,3 h -4.04296 c 0.079,-1.119673 0.23832,-2.206256 0.58203,-3.220703 0.40783,-0.985757 1.04593,-1.902365 1.93164,-2.753907 0.64808,-0.589416 1.41543,-1.040812 2.31836,-1.357421 0.89192,-0.312754 2.01658,-0.478516 3.36914,-0.478516 z"
               id="path52-8"
               sodipodi:nodetypes="csccsccccccccsccsccccccsccscscscccccscscccccscccsccsccccscscccccscsccccccsccscccccccsss" />
          </g>
        </g>
        <g
           id="g33-1-8-7-1-5"
           transform="matrix(-0.4911334,0,0,-0.4911334,-457.01858,182.03611)">
          <g
             id="text33-1-2-1-4-2-3">
            <path
               style="-inkscape-font-specification:'Helvetica Bold';fill:#1a1a1a"
               d="m -323.21789,107.39813 q 0,1.61652 0.52026,2.67562 0.9662,1.95097 3.51175,1.95097 1.56077,0 2.71277,-1.0591 1.17059,-1.07768 1.17059,-3.08439 0,-2.65704 -2.15536,-3.54891 -1.22632,-0.50168 -3.86478,-0.50168 v -3.79045 q 2.58271,-0.0372 3.60465,-0.50168 1.76516,-0.780387 1.76516,-3.158712 0,-1.542195 -0.91045,-2.50839 -0.89187,-0.966195 -2.52697,-0.966195 -1.87665,0 -2.76852,1.189163 -0.87329,1.189162 -0.83613,3.177293 h -4.94246 q 0.0743,-2.006711 0.68749,-3.809036 0.65032,-1.579356 2.04387,-2.917164 1.04052,-0.947614 2.47123,-1.449292 1.43071,-0.501678 3.51175,-0.501678 3.86477,0 6.22452,2.006712 2.37832,1.988131 2.37832,5.351231 0,2.378325 -1.41213,4.013424 -0.89187,1.021934 -1.85806,1.393554 0.72464,0 2.08103,1.2449 2.02529,1.87665 2.02529,5.12826 0,3.41885 -2.37832,6.02014 -2.35975,2.58271 -7.00491,2.58271 -5.72285,0 -7.95253,-3.73471 -1.17058,-1.98813 -1.30064,-5.20259 z"
               id="path49-8-4" />
            <path
               style="-inkscape-font-specification:'Helvetica Bold';fill:#1a1a1a"
               d="m -319.22266,88.162109 c -1.42216,0 -2.64056,0.16924 -3.65625,0.525391 -1.00322,0.351781 -1.88052,0.864444 -2.61914,1.537109 l -0.004,0.0039 -0.004,0.0039 c -0.96618,0.927532 -1.6859,1.950643 -2.14453,3.064453 l -0.006,0.01367 -0.004,0.01172 c -0.42286,1.242905 -0.65995,2.55655 -0.71093,3.933593 l -0.0156,0.449219 h 5.83399 l 1.05663,-1.058593 c -0.0235,-1.25923 -0.82797,-1.59555 -0.31663,-2.292969 l 0.002,-0.002 c 0.50708,-0.674615 1.2616,-1.013671 2.41993,-1.013671 1.00475,0 1.70388,0.280933 2.20898,0.828125 h 0.002 l 0.002,0.002 c 0.52808,0.560418 0.79101,1.268043 0.79101,2.210937 0,1.478395 -0.47791,2.309212 -1.50586,2.763672 h -0.002 l -0.002,0.002 c -0.56013,0.254583 -1.10422,-0.614194 -2.80089,-0.589756 l -1.05849,1.058547 v 4.650394 h 0.43359 c 1.73063,0 2.98225,0.17579 3.69922,0.46875 1.29649,0.53648 1.88672,1.4942 1.88672,3.14843 0,1.25359 -0.34746,2.1379 -1.02929,2.76563 -0.69626,0.64011 -1.47739,0.94531 -2.41993,0.94531 -1.58572,0 -2.54597,-0.54488 -3.12304,-1.70898 v -0.002 c -0.30795,-0.62762 -0.47657,-1.452 -0.47657,-2.48243 v -0.43359 l -5.02744,-1.05855 -1.05849,1.05855 0.0176,0.45117 c 0.0887,2.19182 0.53272,3.99698 1.36133,5.40429 v 0.002 c 1.57006,2.62985 4.41477,3.94726 8.32422,3.94726 3.17705,0 5.65754,-0.89832 7.32617,-2.72461 1.64931,-1.80393 2.49024,-3.93283 2.49024,-6.3125 0,-2.25767 -0.72239,-4.10944 -2.16406,-5.44531 v -0.002 c -0.55802,-0.51215 -1.03152,-0.84303 -1.48243,-1.07031 0.43926,-0.28399 0.89251,-0.50599 1.29297,-0.96485 v -0.002 c 1.00932,-1.168696 1.51758,-2.623655 1.51758,-4.29493 0,-2.343143 -0.85495,-4.279287 -2.53125,-5.681641 -1.66206,-1.413405 -3.85243,-2.109375 -6.50391,-2.109375 z m 0,0.865235 c 2.50155,0 4.45909,0.642086 5.94336,1.904297 h 0.002 l 0.002,0.002 c 1.49334,1.248342 2.22266,2.879566 2.22266,5.019531 0,1.499176 -0.43389,2.71733 -1.30664,3.728516 -0.56074,0.642512 -1.12391,1.057422 -1.68555,1.273442 l 0.1543,0.83789 c 0.23505,0 0.91311,0.32691 1.78906,1.13086 1.25734,1.16613 1.88476,2.73191 1.88476,4.80859 0,2.1788 -0.74384,4.06407 -2.26562,5.72852 -1.47771,1.61732 -3.66905,2.4414 -6.68555,2.4414 -3.71972,0 -6.17504,-1.17334 -7.57812,-3.52148 l -0.002,-0.002 c -0.67286,-1.14373 -1.052,-2.68492 -1.17968,-4.54688 h 4.36328 c 0.0466,0.91132 0.1515,1.7679 0.47851,2.4336 0.71127,1.4362 2.0927,2.1914 3.90039,2.1914 1.13849,0 2.16612,-0.39985 3.00586,-1.17187 0.87895,-0.80919 1.31055,-1.98227 1.31055,-3.4043 0,-1.88848 -0.8465,-3.29654 -2.42383,-3.94922 -0.8195,-0.33525 -2.08967,-0.44556 -3.5957,-0.47656 v -3.04297 c 1.44523,-0.0485 2.63607,-0.15546 3.34765,-0.478519 h 0.002 c 1.32293,-0.586876 2.01953,-1.863734 2.01953,-3.554688 0,-1.111338 -0.34204,-2.073405 -1.02539,-2.800781 l -0.002,-0.002 c -0.68399,-0.739712 -1.66944,-1.103516 -2.84375,-1.103516 -1.34259,0 -2.43317,0.451895 -3.11524,1.361328 v 0.002 l -0.002,0.002 c -0.57668,0.785268 -0.83013,1.817384 -0.87305,3 h -4.04297 c 0.079,-1.119673 0.23833,-2.206256 0.58203,-3.220704 0.40783,-0.985756 1.04593,-1.902364 1.93164,-2.753906 0.64809,-0.589417 1.41544,-1.040812 2.31836,-1.357422 0.89193,-0.312753 2.01659,-0.478515 3.36914,-0.478515 z"
               id="path50-8-9"
               sodipodi:nodetypes="csccsccsccccccscccsccccccscscsccsccccccscscccccscccscccsccccscscccccscscccccsccscccccccsss" />
          </g>
          <g
             id="text33-3-3-8-9-0">
            <path
               style="-inkscape-font-specification:'Helvetica Bold';fill:#ffffff"
               d="m -322.15957,106.3398 q 0,1.61652 0.52026,2.67562 0.9662,1.95097 3.51175,1.95097 1.56077,0 2.71277,-1.0591 1.17059,-1.07768 1.17059,-3.08439 0,-2.65703 -2.15536,-3.5489 -1.22633,-0.50168 -3.86478,-0.50168 v -3.790458 q 2.58271,-0.03716 3.60465,-0.501678 1.76516,-0.780388 1.76516,-3.158713 0,-1.542195 -0.91045,-2.50839 -0.89187,-0.966194 -2.52697,-0.966194 -1.87665,0 -2.76852,1.189162 -0.87329,1.189163 -0.83613,3.177294 h -4.94246 q 0.0743,-2.006712 0.68749,-3.809036 0.65032,-1.579357 2.04387,-2.917165 1.04052,-0.947613 2.47123,-1.449291 1.43071,-0.501678 3.51175,-0.501678 3.86477,0 6.22452,2.006711 2.37832,1.988131 2.37832,5.351232 0,2.378325 -1.41213,4.013423 -0.89187,1.021937 -1.85806,1.393551 0.72464,0 2.08103,1.2449 2.02529,1.87665 2.02529,5.12827 0,3.41884 -2.37832,6.02013 -2.35975,2.58271 -7.00491,2.58271 -5.72285,0 -7.95253,-3.73471 -1.17058,-1.98813 -1.30064,-5.20259 z"
               id="path51-2-2" />
            <path
               style="-inkscape-font-specification:'Helvetica Bold';fill:#1a1a1a"
               d="m -318.16406,87.103516 c -1.42217,0 -2.64056,0.16924 -3.65625,0.52539 -1.00323,0.351781 -1.88053,0.864445 -2.61914,1.53711 l -0.004,0.0039 -0.004,0.0039 c -0.96617,0.927532 -1.6859,1.952595 -2.14453,3.066406 l -0.006,0.01172 -0.004,0.01367 c -0.42287,1.242904 -0.65995,2.554597 -0.71094,3.931641 l -0.0156,0.449218 h 5.83203 l -0.008,-0.441406 c -0.0235,-1.258415 0.23932,-2.210902 0.75,-2.908203 0.50709,-0.676116 1.26227,-1.017578 2.42188,-1.017578 1.00475,0 1.70388,0.280934 2.20898,0.828125 l 0.002,0.002 c 0.52808,0.560418 0.79297,1.269996 0.79297,2.212891 0,1.478394 -0.47792,2.307258 -1.50586,2.761718 h -0.002 l -0.004,0.002 c -0.56012,0.2546 -1.73498,0.438479 -3.43164,0.462891 l -0.42579,0.0059 v 4.650391 h 0.4336 c 1.73151,0 2.98242,0.17747 3.69922,0.4707 v -0.002 c 1.29649,0.53647 1.88672,1.4942 1.88672,3.14844 0,1.25358 -0.34942,2.1379 -1.03125,2.76562 -0.69593,0.63929 -1.47602,0.94531 -2.41797,0.94531 -1.58513,0 -2.5459,-0.54579 -3.12305,-1.70898 -0.30839,-0.62779 -0.47656,-1.45316 -0.47656,-2.48438 v -0.43359 h -6.08594 l 0.0176,0.45117 c 0.0887,2.19182 0.53076,3.99697 1.35937,5.4043 l 0.002,0.002 c 1.57006,2.62985 4.41476,3.94727 8.32422,3.94727 3.17704,0 5.65558,-0.89832 7.32421,-2.72461 1.64931,-1.80394 2.49219,-3.93284 2.49219,-6.3125 0,-2.25768 -0.72239,-4.10945 -2.16406,-5.44531 l -0.002,-0.002 c -0.55802,-0.51215 -1.02957,-0.84303 -1.48047,-1.07031 0.43909,-0.283941 0.89069,-0.506138 1.29101,-0.964842 h 0.002 c 1.00932,-1.168687 1.51757,-2.6256 1.51757,-4.296875 0,-2.343143 -0.85495,-4.279287 -2.53125,-5.68164 -1.66206,-1.413405 -3.85242,-2.109375 -6.5039,-2.109375 z m 0,0.865234 c 2.50154,0 4.45909,0.642087 5.94336,1.904297 l 0.002,0.002 c 1.49334,1.248342 2.22461,2.879566 2.22461,5.019531 0,1.499826 -0.43508,2.719026 -1.30859,3.730469 -0.56002,0.64109 -1.12464,1.055747 -1.68555,1.271484 l 0.15625,0.837899 c 0.23506,0 0.91311,0.3269 1.78906,1.13085 1.25735,1.16614 1.88477,2.73191 1.88477,4.8086 0,2.17879 -0.74385,4.06406 -2.26563,5.72851 -1.4777,1.61733 -3.66905,2.44141 -6.68554,2.44141 -3.71973,0 -6.17504,-1.17335 -7.57813,-3.52148 l -0.002,-0.002 c -0.67286,-1.14373 -1.05201,-2.68491 -1.17969,-4.54687 h 4.36328 c 0.0466,0.91132 0.15151,1.76789 0.47852,2.43359 0.71127,1.43621 2.0927,2.19336 3.90039,2.19336 1.13848,0 2.16611,-0.4018 3.00586,-1.17383 0.87895,-0.80918 1.31054,-1.98227 1.31054,-3.40429 0,-1.88848 -0.8465,-3.29654 -2.42382,-3.94922 h -0.002 c -0.8199,-0.33542 -2.08861,-0.44568 -3.5957,-0.47657 v -3.042967 c 1.44651,-0.04836 2.63761,-0.155248 3.34961,-0.478516 h 0.002 c 1.32293,-0.586877 2.01953,-1.86178 2.01953,-3.552734 0,-1.111339 -0.34204,-2.075359 -1.02539,-2.802735 l -0.002,-0.002 c -0.68399,-0.73971 -1.66944,-1.103515 -2.84375,-1.103516 -1.34259,0 -2.43316,0.451896 -3.11524,1.361329 l -0.002,0.002 v 0.002 c -0.57668,0.785269 -0.83013,1.817385 -0.87305,3 h -4.04296 c 0.079,-1.119673 0.23832,-2.206256 0.58203,-3.220703 0.40783,-0.985757 1.04593,-1.902365 1.93164,-2.753907 0.64808,-0.589416 1.41543,-1.040812 2.31836,-1.357421 0.89192,-0.312754 2.01658,-0.478516 3.36914,-0.478516 z"
               id="path52-8-0"
               sodipodi:nodetypes="csccsccccccccsccsccccccsccscscscccccscscccccscccsccsccccscscccccscsccccccsccscccccccsss" />
          </g>
        </g>
        <g
           id="g33-0-0-4-9"
           transform="matrix(0.49032372,0,0,0.49032372,-179.11968,22.332859)" />
        <g
           id="g33-0-7-9-6-8"
           transform="matrix(-0.49032372,0,0,-0.49032372,-456.65231,182.47019)" />
      </g>
    </g>
  </g>
</svg>
