<?xml version="1.0" encoding="UTF-8" standalone="no"?>
<!-- Created with Inkscape (http://www.inkscape.org/) -->

<svg
   width="56mm"
   height="86mm"
   viewBox="0 0 56 86"
   version="1.1"
   id="svg1"
   inkscape:version="1.4 (e7c3feb100, 2024-10-09)"
   sodipodi:docname="two.svg"
   xmlns:inkscape="http://www.inkscape.org/namespaces/inkscape"
   xmlns:sodipodi="http://sodipodi.sourceforge.net/DTD/sodipodi-0.dtd"
   xmlns="http://www.w3.org/2000/svg"
   xmlns:svg="http://www.w3.org/2000/svg">
  <sodipodi:namedview
     id="namedview1"
     pagecolor="#ffffff"
     bordercolor="#000000"
     borderopacity="0.25"
     inkscape:showpageshadow="2"
     inkscape:pageopacity="0.0"
     inkscape:pagecheckerboard="0"
     inkscape:deskcolor="#d1d1d1"
     inkscape:document-units="mm"
     inkscape:zoom="1.0595392"
     inkscape:cx="32.089422"
     inkscape:cy="119.39152"
     inkscape:window-width="1261"
     inkscape:window-height="1016"
     inkscape:window-x="0"
     inkscape:window-y="0"
     inkscape:window-maximized="1"
     inkscape:current-layer="g34" />
  <defs
     id="defs1" />
  <g
     inkscape:label="Layer 1"
     inkscape:groupmode="layer"
     id="layer1"
     transform="translate(-133.61458,-101.07083)">
    <g
       id="g34"
       transform="translate(541.07274,41.669305)">
      <g
         id="g36-3-5"
         transform="translate(-61.57198,0.05920551)">
        <rect
           style="fill:#f9f9f9;stroke-width:0.267626"
           id="rect1-0-9-9"
           width="56"
           height="86"
           x="-345.88602"
           y="59.401527"
           rx="3" />
        <rect
           class="suit-bg"
           style="fill-opacity:1;stroke-width:0.239968"
           id="rect1-5-6-4-8"
           width="49.007965"
           height="79.007973"
           x="-342.38998"
           y="62.897545"
           rx="2.6254268" />
        <path
           id="rect1-5-3-8-8-4"
           style="fill:none;fill-opacity:1;stroke:#f9f9f9;stroke-width:2.24;stroke-dasharray:none;stroke-opacity:1;paint-order:normal"
           d="m -304.90093,68.995259 a 19.089518,36.916687 30.07906 0 0 -34.11781,33.347321 19.089518,36.916687 30.07906 0 0 -3.37137,12.90205 v 8.39897 a 19.089518,36.916687 30.07906 0 0 11.51868,12.04578 19.089518,36.916687 30.07906 0 0 34.11833,-33.3468 19.089518,36.916687 30.07906 0 0 3.37085,-12.895856 v -8.407756 a 19.089518,36.916687 30.07906 0 0 -11.51868,-12.043709 z" />
        <g
           id="g33-1-8"
           transform="translate(0.52915727,0.4935967)">
          <g
             id="text33-1-2-1">
            <path
               style="-inkscape-font-specification:'Helvetica Bold';fill:#1a1a1a"
               d="m -328.23467,115.66653 q 0.0743,-2.89859 1.24491,-5.29549 1.13342,-2.6942 5.35123,-5.70427 3.66039,-2.61987 4.73807,-3.75329 1.65368,-1.765163 1.65368,-3.864778 0,-1.709422 -0.94762,-2.842842 -0.94761,-1.133421 -2.71277,-1.133421 -2.41549,0 -3.28878,1.802325 -0.50168,1.040517 -0.59458,3.307358 h -5.14685 q 0.13007,-3.437423 1.24491,-5.555619 2.1182,-4.032004 7.52517,-4.032004 4.27355,0 6.80052,2.378325 2.52697,2.359745 2.52697,6.261684 0,2.991492 -1.78374,5.314072 -1.17058,1.54219 -3.8462,3.43742 l -2.1182,1.50503 q -1.98813,1.41214 -2.73135,2.04388 -0.72465,0.63174 -1.22633,1.46787 h 11.76156 v 4.66375 z"
               id="path45" />
            <path
               style="-inkscape-font-specification:'Helvetica Bold';fill:#1a1a1a"
               d="m -319.16797,88.162109 c -3.71231,0 -6.4255,1.441342 -7.9082,4.263672 -0.78446,1.491221 -1.2066,3.406046 -1.29492,5.740235 l -0.0156,0.449218 h 6.01172 l 1.05858,-1.058593 c 0.0607,-1.481169 -0.77549,-1.899717 -0.4902,-2.492188 v -0.002 c 0.51396,-1.059541 1.39847,-1.556641 2.90039,-1.556641 1.08407,0 1.83205,0.324435 2.37891,0.978516 0.56301,0.673406 0.84765,1.504875 0.84765,2.564453 0,1.286029 -0.49324,2.454115 -1.53711,3.568359 -0.66508,0.69911 -2.24236,1.95698 -4.67382,3.69726 -2.84383,2.02952 -4.68516,3.9647 -5.49415,5.88282 -0.80432,1.65261 -1.2324,3.47737 -1.2832,5.45898 l -0.0117,0.44336 h 19.32813 l 1.05858,-1.05859 -1.05858,-4.47071 h -11.27539 c 0.19461,-0.23588 0.35622,-0.50272 0.58789,-0.70508 l 0.002,-0.002 c 7e-4,-6e-4 10e-4,-0.001 0.002,-0.002 0.47226,-0.40113 1.37808,-1.08058 2.69727,-2.01758 l 2.11914,-1.50391 c 1.80465,-1.27829 3.11464,-2.44264 3.93945,-3.52929 1.24316,-1.61932 1.87305,-3.496358 1.87305,-5.576172 0,-2.694179 -0.89318,-4.921845 -2.66406,-6.576172 -1.77339,-1.669069 -4.16828,-2.496094 -7.09766,-2.496094 z m 0,0.865235 c 2.76868,0 4.908,0.759688 6.50391,2.261718 h 0.002 c 1.59761,1.491885 2.38867,3.437523 2.38867,5.945313 0,1.908239 -0.55891,3.573645 -1.69336,5.050785 h -0.002 v 0.002 c -0.73596,0.9696 -1.98911,2.09703 -3.75195,3.3457 l -2.11719,1.50586 c -1.32951,0.94433 -2.24237,1.62496 -2.76172,2.06641 l -0.002,0.002 -0.002,0.002 c -0.51712,0.45083 -0.95742,0.97527 -1.31445,1.57032 l -0.39258,0.65625 h 12.09375 v 3.79687 h -17.52734 c 0.0978,-1.69467 0.4551,-3.26021 1.14453,-4.67187 l 0.004,-0.01 0.006,-0.0117 c 0.7035,-1.67226 2.42605,-3.53765 5.20312,-5.51953 2.44794,-1.75208 4.02842,-2.99433 4.80078,-3.80664 v -0.002 l 0.002,-0.002 c 1.16103,-1.239302 1.76953,-2.646694 1.76953,-4.160152 0,-1.219651 -0.3464,-2.283273 -1.04688,-3.121094 -0.71663,-0.857146 -1.77544,-1.289062 -3.04492,-1.289062 -1.71806,0 -3.02916,0.704301 -3.67969,2.046875 v 0.002 c -0.33748,0.699953 -0.47727,1.787723 -0.56054,3.060547 h -4.30274 c 0.12321,-2.017545 0.49138,-3.686361 1.14063,-4.919922 1.34156,-2.553675 3.64364,-3.800781 7.14062,-3.800781 z"
               id="path46"
               sodipodi:nodetypes="ccccccccssscccccccccccccccsccccccsccccccccccccccccccccsssccccccc" />
          </g>
          <g
             id="text33-3-3">
            <path
               style="-inkscape-font-specification:'Helvetica Bold';fill:#ffffff"
               d="m -327.17635,114.6082 q 0.0743,-2.89858 1.24491,-5.29549 1.13342,-2.6942 5.35123,-5.70426 3.66039,-2.61988 4.73807,-3.753297 1.65368,-1.765163 1.65368,-3.864778 0,-1.709421 -0.94762,-2.842842 -0.94761,-1.13342 -2.71277,-1.13342 -2.41549,0 -3.28878,1.802324 -0.50168,1.040517 -0.59458,3.307358 h -5.14685 q 0.13007,-3.437423 1.24491,-5.555618 2.11819,-4.032004 7.52517,-4.032004 4.27355,0 6.80052,2.378325 2.52697,2.359744 2.52697,6.261683 0,2.991487 -1.78374,5.314069 -1.17058,1.5422 -3.8462,3.43742 l -2.1182,1.50504 q -1.98813,1.41213 -2.73135,2.04387 -0.72465,0.63174 -1.22633,1.46787 h 11.76156 v 4.66375 z"
               id="path47" />
            <path
               style="-inkscape-font-specification:'Helvetica Bold';fill:#1a1a1a"
               d="m -318.10937,87.103516 c -3.71232,0 -6.42551,1.441341 -7.90821,4.263671 -0.78497,1.49144 -1.20657,3.405254 -1.29492,5.740235 l -0.0156,0.449219 h 6.01171 l 0.0176,-0.416016 c 0.0607,-1.481169 0.2655,-2.542295 0.55078,-3.134766 v -0.002 c 0.51397,-1.059539 1.39652,-1.55664 2.89844,-1.55664 1.08407,0 1.83401,0.324435 2.38086,0.978515 0.56302,0.673407 0.84766,1.504876 0.84766,2.564453 0,1.28603 -0.49324,2.454115 -1.53711,3.56836 -0.66509,0.699113 -2.24237,1.956973 -4.67383,3.697263 -2.84383,2.02951 -4.68515,3.9647 -5.49414,5.88281 -0.80432,1.65262 -1.23241,3.47738 -1.2832,5.45899 l -0.0117,0.44336 h 19.32812 v -5.5293 h -11.27539 c 0.19461,-0.23588 0.35622,-0.50272 0.58789,-0.70508 l 0.002,-0.002 c 7e-4,-6.1e-4 10e-4,-0.001 0.002,-0.002 0.47226,-0.40112 1.37807,-1.08058 2.69726,-2.01757 l 2.11914,-1.50391 c 1.80372,-1.27762 3.11261,-2.44117 3.9375,-3.52734 1.24388,-1.61964 1.875,-3.497712 1.875,-5.578126 0,-2.693755 -0.89373,-4.921925 -2.66406,-6.576172 -1.77338,-1.669069 -4.16827,-2.496093 -7.09765,-2.496093 z m 0,0.865234 c 2.76868,0 4.90799,0.759688 6.5039,2.261719 h 0.002 c 1.59761,1.491883 2.38868,3.437522 2.38868,5.945312 0,1.908236 -0.55892,3.573639 -1.69336,5.050779 h -0.002 v 0.002 c -0.73596,0.9696 -1.98911,2.09703 -3.75195,3.3457 l -2.11914,1.50586 c -1.32951,0.94432 -2.24042,1.62495 -2.75977,2.0664 l -0.002,0.002 -0.002,0.002 c -0.51713,0.45083 -0.95743,0.97527 -1.31445,1.57031 l -0.39258,0.65625 h 12.09375 v 3.79883 h -17.5293 c 0.0976,-1.69546 0.45482,-3.2616 1.14453,-4.67383 l 0.006,-0.01 0.006,-0.0117 c 0.7035,-1.67227 2.42606,-3.53766 5.20313,-5.51953 2.44793,-1.75209 4.02842,-2.99434 4.80078,-3.80664 v -0.002 l 0.002,-0.002 c 1.16103,-1.239305 1.76953,-2.646698 1.76953,-4.160156 0,-1.21965 -0.34835,-2.283273 -1.04883,-3.121093 -0.71663,-0.857146 -1.77544,-1.289063 -3.04492,-1.289063 -1.71805,0 -3.02721,0.704302 -3.67773,2.046875 v 0.002 c -0.33769,0.700385 -0.47735,1.788515 -0.56055,3.0625 h -4.30273 c 0.12306,-2.018507 0.49115,-3.687891 1.14062,-4.921875 1.34156,-2.553674 3.64364,-3.800781 7.14063,-3.800781 z"
               id="path48" />
          </g>
        </g>
        <g
           id="g33-1-8-0"
           transform="matrix(0.502592,0,0,0.502592,-175.08158,21.765704)">
          <g
             id="text33-1-2-1-2">
            <path
               style="-inkscape-font-specification:'Helvetica Bold';fill:#1a1a1a"
               d="m -328.23467,115.66653 q 0.0743,-2.89859 1.24491,-5.29549 1.13342,-2.6942 5.35123,-5.70427 3.66039,-2.61987 4.73807,-3.75329 1.65368,-1.765163 1.65368,-3.864778 0,-1.709422 -0.94762,-2.842842 -0.94761,-1.133421 -2.71277,-1.133421 -2.41549,0 -3.28878,1.802325 -0.50168,1.040517 -0.59458,3.307358 h -5.14685 q 0.13007,-3.437423 1.24491,-5.555619 2.1182,-4.032004 7.52517,-4.032004 4.27355,0 6.80052,2.378325 2.52697,2.359745 2.52697,6.261684 0,2.991492 -1.78374,5.314072 -1.17058,1.54219 -3.8462,3.43742 l -2.1182,1.50503 q -1.98813,1.41214 -2.73135,2.04388 -0.72465,0.63174 -1.22633,1.46787 h 11.76156 v 4.66375 z"
               id="path45-8" />
            <path
               style="-inkscape-font-specification:'Helvetica Bold';fill:#1a1a1a"
               d="m -319.16797,88.162109 c -3.71231,0 -6.4255,1.441342 -7.9082,4.263672 -0.78446,1.491221 -1.2066,3.406046 -1.29492,5.740235 l -0.0156,0.449218 h 6.01172 l 1.05858,-1.058593 c 0.0607,-1.481169 -0.77549,-1.899717 -0.4902,-2.492188 v -0.002 c 0.51396,-1.059541 1.39847,-1.556641 2.90039,-1.556641 1.08407,0 1.83205,0.324435 2.37891,0.978516 0.56301,0.673406 0.84765,1.504875 0.84765,2.564453 0,1.286029 -0.49324,2.454115 -1.53711,3.568359 -0.66508,0.69911 -2.24236,1.95698 -4.67382,3.69726 -2.84383,2.02952 -4.68516,3.9647 -5.49415,5.88282 -0.80432,1.65261 -1.2324,3.47737 -1.2832,5.45898 l -0.0117,0.44336 h 19.32813 l 1.05858,-1.05859 -1.05858,-4.47071 h -11.27539 c 0.19461,-0.23588 0.35622,-0.50272 0.58789,-0.70508 l 0.002,-0.002 c 7e-4,-6e-4 10e-4,-0.001 0.002,-0.002 0.47226,-0.40113 1.37808,-1.08058 2.69727,-2.01758 l 2.11914,-1.50391 c 1.80465,-1.27829 3.11464,-2.44264 3.93945,-3.52929 1.24316,-1.61932 1.87305,-3.496358 1.87305,-5.576172 0,-2.694179 -0.89318,-4.921845 -2.66406,-6.576172 -1.77339,-1.669069 -4.16828,-2.496094 -7.09766,-2.496094 z m 0,0.865235 c 2.76868,0 4.908,0.759688 6.50391,2.261718 h 0.002 c 1.59761,1.491885 2.38867,3.437523 2.38867,5.945313 0,1.908239 -0.55891,3.573645 -1.69336,5.050785 h -0.002 v 0.002 c -0.73596,0.9696 -1.98911,2.09703 -3.75195,3.3457 l -2.11719,1.50586 c -1.32951,0.94433 -2.24237,1.62496 -2.76172,2.06641 l -0.002,0.002 -0.002,0.002 c -0.51712,0.45083 -0.95742,0.97527 -1.31445,1.57032 l -0.39258,0.65625 h 12.09375 v 3.79687 h -17.52734 c 0.0978,-1.69467 0.4551,-3.26021 1.14453,-4.67187 l 0.004,-0.01 0.006,-0.0117 c 0.7035,-1.67226 2.42605,-3.53765 5.20312,-5.51953 2.44794,-1.75208 4.02842,-2.99433 4.80078,-3.80664 v -0.002 l 0.002,-0.002 c 1.16103,-1.239302 1.76953,-2.646694 1.76953,-4.160152 0,-1.219651 -0.3464,-2.283273 -1.04688,-3.121094 -0.71663,-0.857146 -1.77544,-1.289062 -3.04492,-1.289062 -1.71806,0 -3.02916,0.704301 -3.67969,2.046875 v 0.002 c -0.33748,0.699953 -0.47727,1.787723 -0.56054,3.060547 h -4.30274 c 0.12321,-2.017545 0.49138,-3.686361 1.14063,-4.919922 1.34156,-2.553675 3.64364,-3.800781 7.14062,-3.800781 z"
               id="path46-3"
               sodipodi:nodetypes="ccccccccssscccccccccccccccsccccccsccccccccccccccccccccsssccccccc" />
          </g>
          <g
             id="text33-3-3-80">
            <path
               style="-inkscape-font-specification:'Helvetica Bold';fill:#ffffff"
               d="m -327.17635,114.6082 q 0.0743,-2.89858 1.24491,-5.29549 1.13342,-2.6942 5.35123,-5.70426 3.66039,-2.61988 4.73807,-3.753297 1.65368,-1.765163 1.65368,-3.864778 0,-1.709421 -0.94762,-2.842842 -0.94761,-1.13342 -2.71277,-1.13342 -2.41549,0 -3.28878,1.802324 -0.50168,1.040517 -0.59458,3.307358 h -5.14685 q 0.13007,-3.437423 1.24491,-5.555618 2.11819,-4.032004 7.52517,-4.032004 4.27355,0 6.80052,2.378325 2.52697,2.359744 2.52697,6.261683 0,2.991487 -1.78374,5.314069 -1.17058,1.5422 -3.8462,3.43742 l -2.1182,1.50504 q -1.98813,1.41213 -2.73135,2.04387 -0.72465,0.63174 -1.22633,1.46787 h 11.76156 v 4.66375 z"
               id="path47-4" />
            <path
               style="-inkscape-font-specification:'Helvetica Bold';fill:#1a1a1a"
               d="m -318.10937,87.103516 c -3.71232,0 -6.42551,1.441341 -7.90821,4.263671 -0.78497,1.49144 -1.20657,3.405254 -1.29492,5.740235 l -0.0156,0.449219 h 6.01171 l 0.0176,-0.416016 c 0.0607,-1.481169 0.2655,-2.542295 0.55078,-3.134766 v -0.002 c 0.51397,-1.059539 1.39652,-1.55664 2.89844,-1.55664 1.08407,0 1.83401,0.324435 2.38086,0.978515 0.56302,0.673407 0.84766,1.504876 0.84766,2.564453 0,1.28603 -0.49324,2.454115 -1.53711,3.56836 -0.66509,0.699113 -2.24237,1.956973 -4.67383,3.697263 -2.84383,2.02951 -4.68515,3.9647 -5.49414,5.88281 -0.80432,1.65262 -1.23241,3.47738 -1.2832,5.45899 l -0.0117,0.44336 h 19.32812 v -5.5293 h -11.27539 c 0.19461,-0.23588 0.35622,-0.50272 0.58789,-0.70508 l 0.002,-0.002 c 7e-4,-6.1e-4 10e-4,-0.001 0.002,-0.002 0.47226,-0.40112 1.37807,-1.08058 2.69726,-2.01757 l 2.11914,-1.50391 c 1.80372,-1.27762 3.11261,-2.44117 3.9375,-3.52734 1.24388,-1.61964 1.875,-3.497712 1.875,-5.578126 0,-2.693755 -0.89373,-4.921925 -2.66406,-6.576172 -1.77338,-1.669069 -4.16827,-2.496093 -7.09765,-2.496093 z m 0,0.865234 c 2.76868,0 4.90799,0.759688 6.5039,2.261719 h 0.002 c 1.59761,1.491883 2.38868,3.437522 2.38868,5.945312 0,1.908236 -0.55892,3.573639 -1.69336,5.050779 h -0.002 v 0.002 c -0.73596,0.9696 -1.98911,2.09703 -3.75195,3.3457 l -2.11914,1.50586 c -1.32951,0.94432 -2.24042,1.62495 -2.75977,2.0664 l -0.002,0.002 -0.002,0.002 c -0.51713,0.45083 -0.95743,0.97527 -1.31445,1.57031 l -0.39258,0.65625 h 12.09375 v 3.79883 h -17.5293 c 0.0976,-1.69546 0.45482,-3.2616 1.14453,-4.67383 l 0.006,-0.01 0.006,-0.0117 c 0.7035,-1.67227 2.42606,-3.53766 5.20313,-5.51953 2.44793,-1.75209 4.02842,-2.99434 4.80078,-3.80664 v -0.002 l 0.002,-0.002 c 1.16103,-1.239305 1.76953,-2.646698 1.76953,-4.160156 0,-1.21965 -0.34835,-2.283273 -1.04883,-3.121093 -0.71663,-0.857146 -1.77544,-1.289063 -3.04492,-1.289063 -1.71805,0 -3.02721,0.704302 -3.67773,2.046875 v 0.002 c -0.33769,0.700385 -0.47735,1.788515 -0.56055,3.0625 h -4.30273 c 0.12306,-2.018507 0.49115,-3.687891 1.14062,-4.921875 1.34156,-2.553674 3.64364,-3.800781 7.14063,-3.800781 z"
               id="path48-0" />
          </g>
        </g>
        <g
           id="g33-1-8-0-3"
           transform="matrix(-0.502592,0,0,-0.502592,-460.69041,183.03735)">
          <g
             id="text33-1-2-1-2-5">
            <path
               style="-inkscape-font-specification:'Helvetica Bold';fill:#1a1a1a"
               d="m -328.23467,115.66653 q 0.0743,-2.89859 1.24491,-5.29549 1.13342,-2.6942 5.35123,-5.70427 3.66039,-2.61987 4.73807,-3.75329 1.65368,-1.765163 1.65368,-3.864778 0,-1.709422 -0.94762,-2.842842 -0.94761,-1.133421 -2.71277,-1.133421 -2.41549,0 -3.28878,1.802325 -0.50168,1.040517 -0.59458,3.307358 h -5.14685 q 0.13007,-3.437423 1.24491,-5.555619 2.1182,-4.032004 7.52517,-4.032004 4.27355,0 6.80052,2.378325 2.52697,2.359745 2.52697,6.261684 0,2.991492 -1.78374,5.314072 -1.17058,1.54219 -3.8462,3.43742 l -2.1182,1.50503 q -1.98813,1.41214 -2.73135,2.04388 -0.72465,0.63174 -1.22633,1.46787 h 11.76156 v 4.66375 z"
               id="path45-8-7" />
            <path
               style="-inkscape-font-specification:'Helvetica Bold';fill:#1a1a1a"
               d="m -319.16797,88.162109 c -3.71231,0 -6.4255,1.441342 -7.9082,4.263672 -0.78446,1.491221 -1.2066,3.406046 -1.29492,5.740235 l -0.0156,0.449218 h 6.01172 l 1.05858,-1.058593 c 0.0607,-1.481169 -0.77549,-1.899717 -0.4902,-2.492188 v -0.002 c 0.51396,-1.059541 1.39847,-1.556641 2.90039,-1.556641 1.08407,0 1.83205,0.324435 2.37891,0.978516 0.56301,0.673406 0.84765,1.504875 0.84765,2.564453 0,1.286029 -0.49324,2.454115 -1.53711,3.568359 -0.66508,0.69911 -2.24236,1.95698 -4.67382,3.69726 -2.84383,2.02952 -4.68516,3.9647 -5.49415,5.88282 -0.80432,1.65261 -1.2324,3.47737 -1.2832,5.45898 l -0.0117,0.44336 h 19.32813 l 1.05858,-1.05859 -1.05858,-4.47071 h -11.27539 c 0.19461,-0.23588 0.35622,-0.50272 0.58789,-0.70508 l 0.002,-0.002 c 7e-4,-6e-4 10e-4,-0.001 0.002,-0.002 0.47226,-0.40113 1.37808,-1.08058 2.69727,-2.01758 l 2.11914,-1.50391 c 1.80465,-1.27829 3.11464,-2.44264 3.93945,-3.52929 1.24316,-1.61932 1.87305,-3.496358 1.87305,-5.576172 0,-2.694179 -0.89318,-4.921845 -2.66406,-6.576172 -1.77339,-1.669069 -4.16828,-2.496094 -7.09766,-2.496094 z m 0,0.865235 c 2.76868,0 4.908,0.759688 6.50391,2.261718 h 0.002 c 1.59761,1.491885 2.38867,3.437523 2.38867,5.945313 0,1.908239 -0.55891,3.573645 -1.69336,5.050785 h -0.002 v 0.002 c -0.73596,0.9696 -1.98911,2.09703 -3.75195,3.3457 l -2.11719,1.50586 c -1.32951,0.94433 -2.24237,1.62496 -2.76172,2.06641 l -0.002,0.002 -0.002,0.002 c -0.51712,0.45083 -0.95742,0.97527 -1.31445,1.57032 l -0.39258,0.65625 h 12.09375 v 3.79687 h -17.52734 c 0.0978,-1.69467 0.4551,-3.26021 1.14453,-4.67187 l 0.004,-0.01 0.006,-0.0117 c 0.7035,-1.67226 2.42605,-3.53765 5.20312,-5.51953 2.44794,-1.75208 4.02842,-2.99433 4.80078,-3.80664 v -0.002 l 0.002,-0.002 c 1.16103,-1.239302 1.76953,-2.646694 1.76953,-4.160152 0,-1.219651 -0.3464,-2.283273 -1.04688,-3.121094 -0.71663,-0.857146 -1.77544,-1.289062 -3.04492,-1.289062 -1.71806,0 -3.02916,0.704301 -3.67969,2.046875 v 0.002 c -0.33748,0.699953 -0.47727,1.787723 -0.56054,3.060547 h -4.30274 c 0.12321,-2.017545 0.49138,-3.686361 1.14063,-4.919922 1.34156,-2.553675 3.64364,-3.800781 7.14062,-3.800781 z"
               id="path46-3-0"
               sodipodi:nodetypes="ccccccccssscccccccccccccccsccccccsccccccccccccccccccccsssccccccc" />
          </g>
          <g
             id="text33-3-3-80-8">
            <path
               style="-inkscape-font-specification:'Helvetica Bold';fill:#ffffff"
               d="m -327.17635,114.6082 q 0.0743,-2.89858 1.24491,-5.29549 1.13342,-2.6942 5.35123,-5.70426 3.66039,-2.61988 4.73807,-3.753297 1.65368,-1.765163 1.65368,-3.864778 0,-1.709421 -0.94762,-2.842842 -0.94761,-1.13342 -2.71277,-1.13342 -2.41549,0 -3.28878,1.802324 -0.50168,1.040517 -0.59458,3.307358 h -5.14685 q 0.13007,-3.437423 1.24491,-5.555618 2.11819,-4.032004 7.52517,-4.032004 4.27355,0 6.80052,2.378325 2.52697,2.359744 2.52697,6.261683 0,2.991487 -1.78374,5.314069 -1.17058,1.5422 -3.8462,3.43742 l -2.1182,1.50504 q -1.98813,1.41213 -2.73135,2.04387 -0.72465,0.63174 -1.22633,1.46787 h 11.76156 v 4.66375 z"
               id="path47-4-1" />
            <path
               style="-inkscape-font-specification:'Helvetica Bold';fill:#1a1a1a"
               d="m -318.10937,87.103516 c -3.71232,0 -6.42551,1.441341 -7.90821,4.263671 -0.78497,1.49144 -1.20657,3.405254 -1.29492,5.740235 l -0.0156,0.449219 h 6.01171 l 0.0176,-0.416016 c 0.0607,-1.481169 0.2655,-2.542295 0.55078,-3.134766 v -0.002 c 0.51397,-1.059539 1.39652,-1.55664 2.89844,-1.55664 1.08407,0 1.83401,0.324435 2.38086,0.978515 0.56302,0.673407 0.84766,1.504876 0.84766,2.564453 0,1.28603 -0.49324,2.454115 -1.53711,3.56836 -0.66509,0.699113 -2.24237,1.956973 -4.67383,3.697263 -2.84383,2.02951 -4.68515,3.9647 -5.49414,5.88281 -0.80432,1.65262 -1.23241,3.47738 -1.2832,5.45899 l -0.0117,0.44336 h 19.32812 v -5.5293 h -11.27539 c 0.19461,-0.23588 0.35622,-0.50272 0.58789,-0.70508 l 0.002,-0.002 c 7e-4,-6.1e-4 10e-4,-0.001 0.002,-0.002 0.47226,-0.40112 1.37807,-1.08058 2.69726,-2.01757 l 2.11914,-1.50391 c 1.80372,-1.27762 3.11261,-2.44117 3.9375,-3.52734 1.24388,-1.61964 1.875,-3.497712 1.875,-5.578126 0,-2.693755 -0.89373,-4.921925 -2.66406,-6.576172 -1.77338,-1.669069 -4.16827,-2.496093 -7.09765,-2.496093 z m 0,0.865234 c 2.76868,0 4.90799,0.759688 6.5039,2.261719 h 0.002 c 1.59761,1.491883 2.38868,3.437522 2.38868,5.945312 0,1.908236 -0.55892,3.573639 -1.69336,5.050779 h -0.002 v 0.002 c -0.73596,0.9696 -1.98911,2.09703 -3.75195,3.3457 l -2.11914,1.50586 c -1.32951,0.94432 -2.24042,1.62495 -2.75977,2.0664 l -0.002,0.002 -0.002,0.002 c -0.51713,0.45083 -0.95743,0.97527 -1.31445,1.57031 l -0.39258,0.65625 h 12.09375 v 3.79883 h -17.5293 c 0.0976,-1.69546 0.45482,-3.2616 1.14453,-4.67383 l 0.006,-0.01 0.006,-0.0117 c 0.7035,-1.67227 2.42606,-3.53766 5.20313,-5.51953 2.44793,-1.75209 4.02842,-2.99434 4.80078,-3.80664 v -0.002 l 0.002,-0.002 c 1.16103,-1.239305 1.76953,-2.646698 1.76953,-4.160156 0,-1.21965 -0.34835,-2.283273 -1.04883,-3.121093 -0.71663,-0.857146 -1.77544,-1.289063 -3.04492,-1.289063 -1.71805,0 -3.02721,0.704302 -3.67773,2.046875 v 0.002 c -0.33769,0.700385 -0.47735,1.788515 -0.56055,3.0625 h -4.30273 c 0.12306,-2.018507 0.49115,-3.687891 1.14062,-4.921875 1.34156,-2.553674 3.64364,-3.800781 7.14063,-3.800781 z"
               id="path48-0-9" />
          </g>
        </g>
        <g
           id="g33-0-0-4"
           transform="matrix(0.49032372,0,0,0.49032372,-179.11968,22.332859)" />
      </g>
    </g>
  </g>
</svg>
